/* XPM */
static char * logo_xpm[] = {
"35 35 650 2",
"  	c None",
". 	c #D24F28",
"+ 	c #D34F27",
"@ 	c #D44F26",
"# 	c #D14F26",
"$ 	c #D95027",
"% 	c #D85129",
"& 	c #D54F29",
"* 	c #D24D27",
"= 	c #CB4924",
"- 	c #C94A26",
"; 	c #CD4A26",
"> 	c #C04327",
", 	c #D24E28",
"' 	c #D44F27",
") 	c #D75026",
"! 	c #D75126",
"~ 	c #D35327",
"{ 	c #D7562A",
"] 	c #DB5629",
"^ 	c #D95529",
"/ 	c #D75428",
"( 	c #D35228",
"_ 	c #CF4E27",
": 	c #C94926",
"< 	c #C44728",
"[ 	c #C64727",
"} 	c #C24427",
"| 	c #C2492A",
"1 	c #DA5226",
"2 	c #DB5226",
"3 	c #D85126",
"4 	c #D95327",
"5 	c #DB582A",
"6 	c #DD5B2A",
"7 	c #DE5C28",
"8 	c #DE5F28",
"9 	c #DC5D27",
"0 	c #D95B28",
"a 	c #D75727",
"b 	c #D35128",
"c 	c #CD4E28",
"d 	c #C84929",
"e 	c #C34628",
"f 	c #C04427",
"g 	c #B64028",
"h 	c #D14E26",
"i 	c #DC5226",
"j 	c #DC5326",
"k 	c #E0582A",
"l 	c #E05A2A",
"m 	c #E15D2A",
"n 	c #E06029",
"o 	c #E16327",
"p 	c #E16727",
"q 	c #E06826",
"r 	c #DE6527",
"s 	c #DB6028",
"t 	c #D55928",
"u 	c #CF5128",
"v 	c #CB4B28",
"w 	c #C74828",
"x 	c #C14528",
"y 	c #BC4128",
"z 	c #B83E26",
"A 	c #D64E25",
"B 	c #E0572B",
"C 	c #E3592B",
"D 	c #E35A2B",
"E 	c #E15A2A",
"F 	c #E15E29",
"G 	c #E36527",
"H 	c #E67633",
"I 	c #EC955A",
"J 	c #EB965A",
"K 	c #EA945A",
"L 	c #E68F5B",
"M 	c #D85F27",
"N 	c #D15527",
"O 	c #CB4E28",
"P 	c #C34528",
"Q 	c #C04428",
"R 	c #BB4027",
"S 	c #B93F26",
"T 	c #D74F26",
"U 	c #E2572B",
"V 	c #E55A2C",
"W 	c #E5592B",
"X 	c #E35B2B",
"Y 	c #E25D2A",
"Z 	c #E26328",
"` 	c #E56A26",
" .	c #ED975B",
"..	c #FFFFFF",
"+.	c #DB6524",
"@.	c #D35926",
"#.	c #CC4E27",
"$.	c #C74729",
"%.	c #C34428",
"&.	c #BF4428",
"*.	c #BD4128",
"=.	c #B93E27",
"-.	c #B43C25",
";.	c #DA5126",
">.	c #E45A2B",
",.	c #E4582B",
"'.	c #E2592B",
").	c #E25E29",
"!.	c #E26528",
"~.	c #E56F25",
"{.	c #EF9C59",
"].	c #DD6A24",
"^.	c #D35B26",
"/.	c #CC4F27",
"(.	c #C74829",
"_.	c #C14428",
":.	c #BE4328",
"<.	c #B93F28",
"[.	c #B63E27",
"}.	c #B53C25",
"|.	c #B83F28",
"1.	c #CD4D29",
"2.	c #D24F27",
"3.	c #DC552A",
"4.	c #E25A2C",
"5.	c #E3592C",
"6.	c #E25A2B",
"7.	c #E1582B",
"8.	c #E1592A",
"9.	c #E05E29",
"0.	c #E26527",
"a.	c #E57124",
"b.	c #F09F58",
"c.	c #DF6D23",
"d.	c #D55D25",
"e.	c #CD5127",
"f.	c #C74A28",
"g.	c #C24628",
"h.	c #BF4228",
"i.	c #BA4028",
"j.	c #B63D27",
"k.	c #B94027",
"l.	c #BA4128",
"m.	c #B63E29",
"n.	c #D65227",
"o.	c #DF592A",
"p.	c #E35B2A",
"q.	c #E25B2A",
"r.	c #DF5A2A",
"s.	c #E26627",
"t.	c #E57224",
"u.	c #F0A058",
"v.	c #DF6F23",
"w.	c #D55E25",
"x.	c #CD5226",
"y.	c #C74B28",
"z.	c #C34927",
"A.	c #C14827",
"B.	c #BF4626",
"C.	c #BB4426",
"D.	c #B84026",
"E.	c #BA4027",
"F.	c #B94028",
"G.	c #D65026",
"H.	c #D45126",
"I.	c #DA572A",
"J.	c #E15C2A",
"K.	c #E25F29",
"L.	c #E26029",
"M.	c #E05D29",
"N.	c #DF5C2A",
"O.	c #E05F28",
"P.	c #E36627",
"Q.	c #E57223",
"R.	c #F0A158",
"S.	c #DF6F22",
"T.	c #D55F25",
"U.	c #CD5325",
"V.	c #C94E27",
"W.	c #C54D27",
"X.	c #C54E26",
"Y.	c #C24D26",
"Z.	c #BF4926",
"`.	c #BA4626",
" +	c #B84126",
".+	c #B33D28",
"++	c #D85226",
"@+	c #DE5B29",
"#+	c #E26028",
"$+	c #E36428",
"%+	c #E16228",
"&+	c #DF6029",
"*+	c #DE6127",
"=+	c #E16625",
"-+	c #D45F25",
";+	c #CD5425",
">+	c #C95126",
",+	c #C85326",
"'+	c #C95625",
")+	c #C55324",
"!+	c #C04D25",
"~+	c #BA4725",
"{+	c #BA4127",
"]+	c #B73F28",
"^+	c #D05026",
"/+	c #D75427",
"(+	c #E46B26",
"_+	c #E6752E",
":+	c #F5C9AE",
"<+	c #F4C8B0",
"[+	c #E3743E",
"}+	c #DD6326",
"|+	c #DF6625",
"1+	c #E37223",
"2+	c #EFA058",
"3+	c #DD6E22",
"4+	c #D35E25",
"5+	c #CD5626",
"6+	c #CB5526",
"7+	c #CF6332",
"8+	c #E7AD8F",
"9+	c #F4DACA",
"0+	c #D67E4E",
"a+	c #C75925",
"b+	c #BE4F24",
"c+	c #BB4227",
"d+	c #B83F27",
"e+	c #B73F27",
"f+	c #D55225",
"g+	c #DA5627",
"h+	c #E16427",
"i+	c #E46C26",
"j+	c #E7772A",
"k+	c #F3B88D",
"l+	c #F3BF9E",
"m+	c #E27031",
"n+	c #DE6426",
"o+	c #DF6526",
"p+	c #E16F24",
"q+	c #EE9E59",
"r+	c #DB6C23",
"s+	c #D25E24",
"t+	c #CD5825",
"u+	c #CC5925",
"v+	c #D26328",
"w+	c #E6A579",
"x+	c #FFFEFD",
"y+	c #F0C9AF",
"z+	c #D26F36",
"A+	c #C55B28",
"B+	c #BA4727",
"C+	c #B53D24",
"D+	c #D95625",
"E+	c #DC5E2A",
"F+	c #E1682A",
"G+	c #E67B35",
"H+	c #F5C6A1",
"I+	c #FFFBF8",
"J+	c #F2BC96",
"K+	c #E27330",
"L+	c #DD6526",
"M+	c #DD6525",
"N+	c #E06D24",
"O+	c #EB9B59",
"P+	c #D86823",
"Q+	c #D15D24",
"R+	c #CD5925",
"S+	c #CE5C24",
"T+	c #D46928",
"U+	c #E8A776",
"V+	c #FEF9F6",
"W+	c #FEFCFB",
"X+	c #F0CBB2",
"Y+	c #CE7041",
"Z+	c #BF5632",
"`+	c #BA442A",
" @	c #B53D25",
".@	c #D75525",
"+@	c #DB602C",
"@@	c #E5824E",
"#@	c #F6CEB2",
"$@	c #FFFCF9",
"%@	c #F5CAA9",
"&@	c #E37A35",
"*@	c #DC6725",
"=@	c #DC6426",
"-@	c #DD6824",
";@	c #E8955A",
">@	c #D46324",
",@	c #CE5B25",
"'@	c #CC5A25",
")@	c #D06124",
"!@	c #D9722D",
"~@	c #EEB98E",
"{@	c #FEFCFA",
"]@	c #EECEBC",
"^@	c #C76F4E",
"/@	c #BB462C",
"(@	c #B53C24",
"_@	c #D25021",
":@	c #D85928",
"<@	c #E68C5F",
"[@	c #F5CFB6",
"}@	c #FBECE1",
"|@	c #FFFDFC",
"1@	c #FBE6D5",
"2@	c #E68A49",
"3@	c #DC6924",
"4@	c #DA6425",
"5@	c #D96325",
"6@	c #E48F5A",
"7@	c #D05E24",
"8@	c #CC5924",
"9@	c #CE5B23",
"0@	c #D26323",
"a@	c #DC7B36",
"b@	c #F3CFB1",
"c@	c #F9EEE7",
"d@	c #ECCCBB",
"e@	c #CB795E",
"f@	c #B53C23",
"g@	c #CE481C",
"h@	c #D04D1E",
"i@	c #D75822",
"j@	c #E6894C",
"k@	c #F2BB91",
"l@	c #F9E4D2",
"m@	c #EFB385",
"n@	c #DF712A",
"o@	c #DA6524",
"p@	c #D76124",
"q@	c #D66124",
"r@	c #D56224",
"s@	c #D46223",
"t@	c #D26124",
"u@	c #D05E23",
"v@	c #CD5A23",
"w@	c #CD5C24",
"x@	c #D46822",
"y@	c #E49960",
"z@	c #FCF3ED",
"A@	c #FBEFE5",
"B@	c #ECBFA0",
"C@	c #D37D4F",
"D@	c #B74314",
"E@	c #AD3717",
"F@	c #B84027",
"G@	c #B83E25",
"H@	c #C43F19",
"I@	c #C94218",
"J@	c #CE4716",
"K@	c #D25016",
"L@	c #D95F1C",
"M@	c #DE6D21",
"N@	c #E47D30",
"O@	c #F5CFAF",
"P@	c #FBEBDE",
"Q@	c #E69355",
"R@	c #DB6A23",
"S@	c #D76423",
"T@	c #D25D24",
"U@	c #CF5C25",
"V@	c #CE5B24",
"W@	c #CE5A25",
"X@	c #CD5D24",
"Y@	c #D16124",
"Z@	c #D36823",
"`@	c #DD823E",
" #	c #F5D8C2",
".#	c #F8E4D5",
"+#	c #DA8346",
"@#	c #C65616",
"##	c #BA4615",
"$#	c #AE3813",
"%#	c #A93115",
"&#	c #B33B21",
"*#	c #B53B23",
"=#	c #B2391E",
"-#	c #BE3B19",
";#	c #C83F15",
">#	c #CD4615",
",#	c #D85C17",
"'#	c #DD6919",
")#	c #EDA972",
"!#	c #FFFEFC",
"~#	c #F6D3B6",
"{#	c #E17E37",
"]#	c #D96924",
"^#	c #D46323",
"/#	c #D15F24",
"(#	c #D05D24",
"_#	c #CE5C23",
":#	c #CF5C23",
"<#	c #D16223",
"[#	c #D46721",
"}#	c #D87024",
"|#	c #EDB68B",
"1#	c #EDBF9D",
"2#	c #CA5C17",
"3#	c #BF4C15",
"4#	c #B23C14",
"5#	c #A83214",
"6#	c #AB3319",
"7#	c #B13921",
"8#	c #B73D26",
"9#	c #A93621",
"0#	c #B3371C",
"a#	c #C13A16",
"b#	c #C74014",
"c#	c #CC4916",
"d#	c #D35516",
"e#	c #D96217",
"f#	c #EDAF7F",
"g#	c #FEF7F3",
"h#	c #FFFFFE",
"i#	c #F3CCAD",
"j#	c #DE7934",
"k#	c #D6621A",
"l#	c #D25D1A",
"m#	c #D05B19",
"n#	c #CF5A1A",
"o#	c #D05C19",
"p#	c #D16017",
"q#	c #D77026",
"r#	c #ECB58B",
"s#	c #FEFAF7",
"t#	c #F0CCB1",
"u#	c #CA6228",
"v#	c #B64314",
"w#	c #AB3513",
"x#	c #A63014",
"y#	c #AB341D",
"z#	c #AE3822",
"A#	c #B13C26",
"B#	c #A83723",
"C#	c #AC3620",
"D#	c #B93718",
"E#	c #C33B14",
"F#	c #C84414",
"G#	c #CD4F16",
"H#	c #D55D17",
"I#	c #EFBC96",
"J#	c #FEF9F5",
"K#	c #FCF3EC",
"L#	c #EEBB96",
"M#	c #DF8445",
"N#	c #D86E25",
"O#	c #D76B21",
"P#	c #DB7B38",
"Q#	c #E7A779",
"R#	c #F9E5D7",
"S#	c #F1D1BD",
"T#	c #C86434",
"U#	c #B13D14",
"V#	c #A63012",
"W#	c #A22C14",
"X#	c #A32F1A",
"Y#	c #A83622",
"Z#	c #A33526",
"`#	c #A63522",
" $	c #B0351D",
".$	c #BD3815",
"+$	c #C33F14",
"@$	c #C94B17",
"#$	c #D4652B",
"$$	c #F2D0BA",
"%$	c #F3CEB3",
"&$	c #EBAE80",
"*$	c #F5D8C0",
"=$	c #FAEDE3",
"-$	c #F7E1D0",
";$	c #F7DFCA",
">$	c #F9E7DB",
",$	c #EBB58E",
"'$	c #EBB893",
")$	c #FDF7F4",
"!$	c #F7E7DF",
"~$	c #C76C44",
"{$	c #AC3916",
"]$	c #A22D12",
"^$	c #9E2815",
"/$	c #A02D1B",
"($	c #A53422",
"_$	c #A83724",
":$	c #B73516",
"<$	c #BF3B14",
"[$	c #C44418",
"}$	c #D36D41",
"|$	c #F4DBCD",
"1$	c #F0CBB6",
"2$	c #DF8E5E",
"3$	c #D56620",
"4$	c #D56417",
"5$	c #E49760",
"6$	c #FBF0E6",
"7$	c #E8AE85",
"8$	c #CE5E17",
"9$	c #CA5C1A",
"0$	c #D27A48",
"a$	c #E5B59C",
"b$	c #F4E1D9",
"c$	c #CB7B5F",
"d$	c #A73215",
"e$	c #9E2913",
"f$	c #9C2817",
"g$	c #A3311F",
"h$	c #A53523",
"i$	c #A43521",
"j$	c #AE341C",
"k$	c #B93516",
"l$	c #BD3A15",
"m$	c #C34A20",
"n$	c #CD623A",
"o$	c #C95524",
"p$	c #C74C16",
"q$	c #C95015",
"r$	c #CB5716",
"s$	c #D1621C",
"t$	c #EDBB99",
"u$	c #F1D0B9",
"v$	c #D06C32",
"w$	c #C24F15",
"x$	c #BC4815",
"y$	c #B84314",
"z$	c #B7461B",
"A$	c #BA5838",
"B$	c #AF4125",
"C$	c #A12C13",
"D$	c #9E2915",
"E$	c #A12F1D",
"F$	c #9F3221",
"G$	c #AB351F",
"H$	c #AF341B",
"I$	c #B63213",
"J$	c #B73713",
"K$	c #BA3A14",
"L$	c #BB3C14",
"M$	c #BE4114",
"N$	c #C04815",
"O$	c #C65016",
"P$	c #D9824F",
"Q$	c #F9ECE4",
"R$	c #D98E65",
"S$	c #BD4915",
"T$	c #B74014",
"U$	c #B03913",
"V$	c #AB3313",
"W$	c #A83314",
"X$	c #A42F14",
"Y$	c #A12A13",
"Z$	c #9C2714",
"`$	c #A3301E",
" %	c #9E2F1E",
".%	c #A12915",
"+%	c #AA361F",
"@%	c #AB351E",
"#%	c #B02F13",
"$%	c #B13113",
"%%	c #B13013",
"&%	c #B03213",
"*%	c #B43413",
"=%	c #B73B14",
"-%	c #BC4214",
";%	c #C35626",
">%	c #E6B6A0",
",%	c #E8C0AC",
"'%	c #C05A31",
")%	c #B13C15",
"!%	c #AB3413",
"~%	c #A62E12",
"{%	c #A12A12",
"]%	c #9F2912",
"^%	c #9E2813",
"/%	c #9C2715",
"(%	c #A3311E",
"_%	c #9F2C1B",
":%	c #A73521",
"<%	c #A9311C",
"[%	c #A92C16",
"}%	c #A92D14",
"|%	c #A92C12",
"1%	c #AB2E12",
"2%	c #AD3112",
"3%	c #B03714",
"4%	c #B43E18",
"5%	c #BD5633",
"6%	c #BC5634",
"7%	c #AE3D1C",
"8%	c #A83517",
"9%	c #A32D12",
"0%	c #9F2911",
"a%	c #9C2612",
"b%	c #9A2414",
"c%	c #9E2B1A",
"d%	c #A3321F",
"e%	c #9E2D1C",
"f%	c #962716",
"g%	c #923126",
"h%	c #A53421",
"i%	c #A62E1A",
"j%	c #A42B16",
"k%	c #A62D16",
"l%	c #A72D16",
"m%	c #A83015",
"n%	c #A83114",
"o%	c #A72E13",
"p%	c #A62E15",
"q%	c #A22F16",
"r%	c #9F2C15",
"s%	c #9D2915",
"t%	c #9C2717",
"u%	c #A23120",
"v%	c #A03322",
"w%	c #A72C15",
"x%	c #A13524",
"y%	c #9E3322",
"z%	c #A4321E",
"A%	c #A6311D",
"B%	c #A7341F",
"C%	c #A42E1A",
"D%	c #A32E19",
"E%	c #A22E1A",
"F%	c #A4311E",
"G%	c #A12E1A",
"H%	c #A02E1C",
"I%	c #A02F1E",
"J%	c #A1311F",
"K%	c #A33321",
"L%	c #A43424",
"M%	c #B33015",
"N%	c #B02E14",
"O%	c #A42A14",
"P%	c #9E3524",
"Q%	c #9F3422",
"R%	c #9D2F1F",
"S%	c #A72D17",
"T%	c #A22C1A",
"U%	c #A12C1A",
"V%	c #A02C1A",
"W%	c #9F2716",
"X%	c #9E2A18",
"Y%	c #922E1F",
"Z%	c #9D3423",
"`%	c #A63624",
" &	c #A62C16",
".&	c #AF2E14",
"+&	c #AB2C14",
"@&	c #942718",
"#&	c #A02915",
"$&	c #9A2715",
"                                                                      ",
"                      . + @ # $ % & * = - ; >                         ",
"                  , ' ) ! ~ { ] ^ / ( _ : < [ } |                     ",
"                1 2 3 4 5 6 7 8 9 0 a b c d e f > g                   ",
"              h i j k l m n o p q r s t u v w x y y z                 ",
"            A i B C D E F G H I J K L M N O d P Q y R S               ",
"          T i U V W X Y Z `  .........+.@.#.$.%.&.*.=.S -.            ",
"        i ;.B >.V ,.'.).!.~.{.........].^./.(._.:.*.<.[.}.|.          ",
"      1.2.3.4.5.6.7.8.9.0.a.b.........c.d.e.f.g.Q h.i.j.k.l.m.        ",
"      2 n.o.p.q.q.l r.9.s.t.u.........v.w.x.y.z.A.B.C.D.E.F.l.        ",
"    G.H.I.J.).K.L.M.N.O.P.Q.R.........S.T.U.V.W.X.Y.Z.`. +E.E..+      ",
"    ) ++@+#+$+s.s.%+&+*+=+Q.R.........S.-+;+>+,+'+'+)+!+~+{+E.]+      ",
"    ^+/+O.G (+_+:+<+[+}+|+1+2+........3+4+5+6+7+8+9+0+a+b+c+d+e+      ",
"    f+g+h+i+j+k+..l+m+n+o+p+q+........r+s+t+u+v+w+x+y+z+A+B+{+C+      ",
"    D+E+F+G+H+I+..J+K+L+M+N+O+........P+Q+R+S+T+U+V+W+X+Y+Z+`+ @      ",
"    .@+@@@#@$@....%@&@*@=@-@;@........>@,@'@)@!@~@....{@]@^@/@(@      ",
"    _@:@<@[@}@|@..1@2@3@4@5@6@........7@8@9@0@a@b@..|@c@d@e@`+f@      ",
"    g@h@i@+.j@k@l@$@m@n@o@p@q@r@s@t@u@v@w@)@x@y@z@A@B@C@D@E@F@G@      ",
"    H@I@J@K@L@M@N@O@P@Q@R@S@T.T@U@V@W@X@Y@Z@`@ #.#+#@###$#%#&#*#      ",
"    =#-#;#>#K@,#'#)#!#~#{#]#^#/#(#_#:#<#[#}#|#..1#2#3#4#5#6#7#8#      ",
"    9#0#a#b#c#d#e#f#g#h#i#j#k#l#m#n#o#p#q#r#s#..t#u#v#w#x#y#z#A#      ",
"    B#C#D#E#F#G#H#I#J#....K#L#M#N#O#P#Q#R#....|@S#T#U#V#W#X#Y#Z#      ",
"      `# $.$+$@$#$$$h#..%$&$*$=$-$;$=$>$,$'$)$..!$~${$]$^$/$($        ",
"      _$Y#:$<$[$}$|$1$2$3$4$5$6$....W+7$8$9$0$a$b$c$d$e$f$g$h$        ",
"        i$j$k$l$m$n$o$p$q$r$s$t$....u$v$w$x$y$z$A$B$C$D$E$F$          ",
"          G$H$I$J$K$K$L$M$N$O$P$Q$s#R$S$T$U$V$W$X$Y$Z$`$ %      .%    ",
"            +%@%#%$%%%&%*%=%-%;%>%,%'%)%!%~%{%]%^%/%(%_%      .%.%    ",
"              :%<%[%}%|%1%2%3%4%5%6%7%8%9%0%a%b%c%d%e%      .%f%.%    ",
"                g%h%i%j%k%l%m%n%n%o%p%q%r%s%t%c%u%v%      .%w%.%.%    ",
"                  x%y%h%z%A%B%C%D%E%F%G%H%I%J%K%L%      .%M%N%O%.%    ",
"                      P%Q%R%S%T%U%V%W%X%Y%Z%`%        .% &.&+&.%.%    ",
"                                                    .%@&#&O%.%$&.%    ",
"                                                  .%.%.%.%.%.%.%.%    ",
"                                                                      ",
"                                                                      "};
