/* XPM */
static char * logo_xpm[] = {
"32 32 233 2",
"  	c None",
". 	c #000000",
"+ 	c #280000",
"@ 	c #380000",
"# 	c #210000",
"$ 	c #0D0000",
"% 	c #2C0000",
"& 	c #360000",
"* 	c #180000",
"= 	c #220000",
"- 	c #6D0606",
"; 	c #952B2B",
"> 	c #A74343",
", 	c #AF4C4C",
"' 	c #A54949",
") 	c #963939",
"! 	c #731717",
"~ 	c #300000",
"{ 	c #080000",
"] 	c #460000",
"^ 	c #800000",
"/ 	c #9F0000",
"( 	c #A90000",
"_ 	c #AD0000",
": 	c #A10000",
"< 	c #870000",
"[ 	c #4E0000",
"} 	c #100000",
"| 	c #360202",
"1 	c #872020",
"2 	c #D25050",
"3 	c #F57373",
"4 	c #F18787",
"5 	c #F09393",
"6 	c #F18C8C",
"7 	c #F66969",
"8 	c #D93636",
"9 	c #900E0E",
"0 	c #3E0000",
"a 	c #190000",
"b 	c #5F0000",
"c 	c #AE0000",
"d 	c #E40000",
"e 	c #F50000",
"f 	c #F00000",
"g 	c #F20000",
"h 	c #ED0000",
"i 	c #B60000",
"j 	c #640000",
"k 	c #230000",
"l 	c #A02424",
"m 	c #F26C6C",
"n 	c #EB9E9E",
"o 	c #E59B9B",
"p 	c #E59999",
"q 	c #E58787",
"r 	c #E56A6A",
"s 	c #E64646",
"t 	c #EB2E2E",
"u 	c #ED1414",
"v 	c #2E0000",
"w 	c #020000",
"x 	c #620000",
"y 	c #D20000",
"z 	c #E80000",
"A 	c #E50000",
"B 	c #E60000",
"C 	c #D80000",
"D 	c #700000",
"E 	c #120000",
"F 	c #040000",
"G 	c #9C1717",
"H 	c #E96C6C",
"I 	c #E79D9D",
"J 	c #E59595",
"K 	c #E69595",
"L 	c #E68989",
"M 	c #E64343",
"N 	c #E60505",
"O 	c #E30000",
"P 	c #A40000",
"Q 	c #150000",
"R 	c #CC0000",
"S 	c #EE0000",
"T 	c #C70000",
"U 	c #650000",
"V 	c #500000",
"W 	c #C25757",
"X 	c #EC9090",
"Y 	c #E69696",
"Z 	c #E59898",
"` 	c #E68A8A",
" .	c #E63939",
"..	c #E60202",
"+.	c #EA0000",
"@.	c #D00000",
"#.	c #590000",
"$.	c #DF0000",
"%.	c #E70000",
"&.	c #090000",
"*.	c #921313",
"=.	c #D97373",
"-.	c #E99A9A",
";.	c #E59696",
">.	c #E59090",
",.	c #E56464",
"'.	c #E60303",
").	c #E20000",
"!.	c #C90000",
"~.	c #E00000",
"{.	c #BB0000",
"].	c #390000",
"^.	c #010000",
"/.	c #AE2B2B",
"(.	c #E47E7E",
"_.	c #E79A9A",
":.	c #E68080",
"<.	c #E63232",
"[.	c #EC0000",
"}.	c #B73838",
"|.	c #E88282",
"1.	c #E69999",
"2.	c #E67373",
"3.	c #E60D0D",
"4.	c #EB0000",
"5.	c #CB0000",
"6.	c #6D0000",
"7.	c #060000",
"8.	c #B53737",
"9.	c #E78181",
"0.	c #E69C9C",
"a.	c #E56D6D",
"b.	c #670000",
"c.	c #050000",
"d.	c #A62A2A",
"e.	c #E17D7D",
"f.	c #E89A9A",
"g.	c #E59C9C",
"h.	c #E66D6D",
"i.	c #C10000",
"j.	c #4B0000",
"k.	c #7F1010",
"l.	c #D27373",
"m.	c #EA9B9B",
"n.	c #E67171",
"o.	c #EF0000",
"p.	c #B00000",
"q.	c #170000",
"r.	c #BA5959",
"s.	c #EF9191",
"t.	c #E67979",
"u.	c #E61F1F",
"v.	c #8F0000",
"w.	c #982A2A",
"x.	c #E87979",
"y.	c #E7A0A0",
"z.	c #E58888",
"A.	c #E54A4A",
"B.	c #430000",
"C.	c #3C0404",
"D.	c #B14C4C",
"E.	c #F38F8F",
"F.	c #6F0000",
"G.	c #601A1A",
"H.	c #CF6060",
"I.	c #EF9A9A",
"J.	c #E58B8B",
"K.	c #E52A2A",
"L.	c #E90000",
"M.	c #8A0000",
"N.	c #1A0000",
"O.	c #742424",
"P.	c #DD7373",
"Q.	c #EA9191",
"R.	c #E60808",
"S.	c #AC0000",
"T.	c #802121",
"U.	c #E67D7D",
"V.	c #E79191",
"W.	c #E72D2D",
"X.	c #E60404",
"Y.	c #BC0000",
"Z.	c #2F0000",
"`.	c #200000",
" +	c #7E1C1C",
".+	c #EB7676",
"++	c #E67A7A",
"@+	c #E51212",
"#+	c #C00000",
"$+	c #260000",
"%+	c #200101",
"&+	c #6A1818",
"*+	c #E86B6B",
"=+	c #EA5050",
"-+	c #E60F0F",
";+	c #270000",
">+	c #1C0000",
",+	c #661D1D",
"'+	c #DC5757",
")+	c #EC2F2F",
"!+	c #E60606",
"~+	c #A00000",
"{+	c #310000",
"]+	c #0F0000",
"^+	c #6B2323",
"/+	c #CD3939",
"(+	c #EC1D1D",
"_+	c #E60101",
":+	c #DD0000",
"<+	c #950000",
"[+	c #6C1F1F",
"}+	c #C92828",
"|+	c #EB1111",
"1+	c #930000",
"2+	c #320000",
"3+	c #651818",
"4+	c #D21F1F",
"5+	c #E90404",
"6+	c #900000",
"7+	c #290000",
"8+	c #5A0E0E",
"9+	c #DC1919",
"0+	c #0A0101",
"a+	c #550B0B",
"b+	c #E21717",
"c+	c #170404",
"d+	c #6C0D0D",
"e+	c #EE0101",
"f+	c #350000",
"g+	c #1F0202",
"h+	c #810000",
"i+	c #4F0000",
"j+	c #070000",
"                                                                ",
"          . . + @ # . .               . . $ % & * . .           ",
"      . = - ; > , ' ) ! ~ .         { ] ^ / ( _ : < [ }         ",
"    . | 1 2 3 4 5 6 7 8 9 0 .     a b c d e f f g h i j k       ",
"    % l m n o p q r s t u c v . w x y g z A B A A B g C D E     ",
"  F G H I J K L M N A A z O P w Q R h A A B B B B B A S T U w   ",
". V W X Y Z `  ...B A A B +.@.#.( $.%.B A B B B B B A B S P .   ",
"&.*.=.-.;.>.,.'.B B B B A %.).!.~.A B A B B B B B B B A S {.].  ",
"^./.(._.p :.<.A A B B B B A B B %.B A B B B B B B B B A [.T b ^.",
". }.|.1.o 2.3.A A B B B B A B B B A B B B B B B B B B B 4.5.6.7.",
". 8.9.1.0.a.A B B B B B B B B B B B B B B B B B B B B B 4.!.b.c.",
"F d.e.f.g.h.B A A B B B B B B B B B B B B B B B B B B A h i.j.  ",
"{ k.l.m.g.n.N A A B B B B B B B B B B B B B B B B B B B o.p.q.  ",
"  ~ r.s.g.t.u.A A B B B B B B B B B B B B B B B B B B %.d v..   ",
"  . w.x.y.z.A.B B B B B B B B B B B B B B B B B B B A g i B..   ",
"  . C.D.E.Z 2...B A B B B B B B B B B B B B B B B A 4.C F.&.    ",
"    . G.H.I.J.K.A A B B B B B B B B B B B B B A A z L.M.+       ",
"      N.O.P.Q.r R.B A B B B B B B B B B B B A B %.B S.& .       ",
"        = T.U.V.W.X.A B B B B B B B B B B A B B A Y.Z..         ",
"          `. +.+++@+A B B B B B B B B B B A B B #+$+.           ",
"            %+&+*+=+-+A A B B B B B B B A L.B p.;+F             ",
"              >+,+'+)+!+A B B B B B B A [.O ~+{+.               ",
"                ]+^+/+(+_+A B B B B A h :+<+@ .                 ",
"                  . [+}+|+%.A B B A 4.:+1+2+.                   ",
"                    . 3+4+5+B A A z B 6+7+.                     ",
"                      . 8+9+%.B B [.<+% .                       ",
"                        0+a+b+%.4./ v ^.                        ",
"                          c+d+e+T f+F                           ",
"                            g+h+i+{                             ",
"                            j+} .                               ",
"                              . F                               ",
"                                                                "};
