/* XPM */
static char * logo_xpm[] = {
"35 35 708 2",
"  	c None",
". 	c #9F3121",
"+ 	c #993021",
"@ 	c #A13120",
"# 	c #A8341E",
"$ 	c #AA331C",
"% 	c #AA331B",
"& 	c #A9331C",
"* 	c #A5331D",
"= 	c #A73421",
"- 	c #A53321",
"; 	c #9D3220",
"> 	c #A03220",
", 	c #A1311E",
"' 	c #A3301C",
") 	c #A42E1A",
"! 	c #A92F18",
"~ 	c #AD3218",
"{ 	c #B03317",
"] 	c #B23417",
"^ 	c #B13418",
"/ 	c #AE341A",
"( 	c #AB351D",
"_ 	c #AA341E",
": 	c #A9351F",
"< 	c #A7341F",
"[ 	c #9D2D1C",
"} 	c #9F301E",
"| 	c #A3301B",
"1 	c #A32D18",
"2 	c #A62B15",
"3 	c #AA2D14",
"4 	c #AF3013",
"5 	c #B43413",
"6 	c #B93815",
"7 	c #BB3915",
"8 	c #BB3714",
"9 	c #B83616",
"0 	c #B53619",
"a 	c #B2361B",
"b 	c #B0371C",
"c 	c #B2381B",
"d 	c #A32A17",
"e 	c #A42F1B",
"f 	c #A52E17",
"g 	c #A72C13",
"h 	c #AA2C12",
"i 	c #B03012",
"j 	c #B63613",
"k 	c #BE441D",
"l 	c #C6562F",
"m 	c #C74F24",
"n 	c #C44417",
"o 	c #C34014",
"p 	c #C33C14",
"q 	c #C13A14",
"r 	c #C03A15",
"s 	c #BF3B17",
"t 	c #C13D18",
"u 	c #C74118",
"v 	c #9F2A19",
"w 	c #A22C19",
"x 	c #A52F19",
"y 	c #A73016",
"z 	c #A92F13",
"A 	c #AD3012",
"B 	c #B23312",
"C 	c #B73813",
"D 	c #BE4218",
"E 	c #CF6E48",
"F 	c #E1A084",
"G 	c #D98056",
"H 	c #CD551D",
"I 	c #CA4B15",
"J 	c #C94714",
"K 	c #C94414",
"L 	c #CA4314",
"M 	c #CA4416",
"N 	c #CC4719",
"O 	c #CE4B1D",
"P 	c #D14D1E",
"Q 	c #9F2917",
"R 	c #A02C19",
"S 	c #A32D17",
"T 	c #A73115",
"U 	c #AC3514",
"V 	c #B23813",
"W 	c #B63B13",
"X 	c #BB3F13",
"Y 	c #C04414",
"Z 	c #CA5926",
"` 	c #E19F7D",
" .	c #F4DDCE",
"..	c #EAB696",
"+.	c #DA753B",
"@.	c #D25716",
"#.	c #D15315",
"$.	c #D25116",
"%.	c #D15118",
"&.	c #D3541B",
"*.	c #D8612E",
"=.	c #D86030",
"-.	c #D65726",
";.	c #D65424",
">.	c #9C2716",
",.	c #9F2A18",
"'.	c #A22D18",
").	c #A73117",
"!.	c #B04120",
"~.	c #BB502A",
"{.	c #BE4C1E",
"].	c #C14B18",
"^.	c #C44E15",
"/.	c #C95315",
"(.	c #D56F34",
"_.	c #EDC2A8",
":.	c #FCF5F1",
"<.	c #F7E0CF",
"[.	c #E9A677",
"}.	c #DD7430",
"|.	c #DA6319",
"1.	c #DA6620",
"2.	c #DD7233",
"3.	c #E28753",
"4.	c #E99F77",
"5.	c #E48557",
"6.	c #DC6430",
"7.	c #D85826",
"8.	c #D55124",
"9.	c #942D1D",
"0.	c #9A2C1A",
"a.	c #A02D18",
"b.	c #A42F17",
"c.	c #AE3E1F",
"d.	c #C77153",
"e.	c #D99A7F",
"f.	c #D98D66",
"g.	c #D47742",
"h.	c #D26C2E",
"i.	c #D56D2A",
"j.	c #E1915B",
"k.	c #F5DDCC",
"l.	c #FDFAF7",
"m.	c #FDF7F2",
"n.	c #F6D7C1",
"o.	c #EBA674",
"p.	c #E58B4A",
"q.	c #E89A61",
"r.	c #EFB891",
"s.	c #F5D3BD",
"t.	c #F7DAC5",
"u.	c #EB9D6F",
"v.	c #E06B31",
"w.	c #DB5A27",
"x.	c #D45225",
"y.	c #D14E24",
"z.	c #A03221",
"A.	c #9C301F",
"B.	c #9D2D1A",
"C.	c #A02D16",
"D.	c #A53216",
"E.	c #B34826",
"F.	c #D59379",
"G.	c #F3E0D6",
"H.	c #F5E0D3",
"I.	c #EFCAB2",
"J.	c #EBB794",
"K.	c #E9AD83",
"L.	c #EEC09E",
"M.	c #F7E2D2",
"N.	c #F8E7D9",
"O.	c #F8E6D7",
"P.	c #F9E7D9",
"Q.	c #F6DBC5",
"R.	c #F4D2B6",
"S.	c #F8E0CE",
"T.	c #FCF1E9",
"U.	c #FEFAF8",
"V.	c #F9E4D5",
"W.	c #EB9B66",
"X.	c #E26B29",
"Y.	c #DE5F26",
"Z.	c #D85526",
"`.	c #D55026",
" +	c #D54E25",
".+	c #A23120",
"++	c #9F2E1C",
"@+	c #9D2A16",
"#+	c #9F2B12",
"$+	c #A73213",
"%+	c #B4441D",
"&+	c #D0805A",
"*+	c #F3DCCF",
"=+	c #FEFDFC",
"-+	c #FCF6F2",
";+	c #F8EADF",
">+	c #F1CDB1",
",+	c #ECBA96",
"'+	c #E7A679",
")+	c #E59963",
"!+	c #E79C67",
"~+	c #EAA879",
"{+	c #EEB991",
"]+	c #F3C9AA",
"^+	c #F8E2D0",
"/+	c #FCF3ED",
"(+	c #FFFDFD",
"_+	c #FAE2D1",
":+	c #EB975D",
"<+	c #E36B26",
"[+	c #E06126",
"}+	c #DC5927",
"|+	c #D65226",
"1+	c #D44F25",
"2+	c #A33221",
"3+	c #9D2919",
"4+	c #9C2613",
"5+	c #A12A11",
"6+	c #AA3213",
"7+	c #B53C0F",
"8+	c #C9612C",
"9+	c #F1D0B8",
"0+	c #FFFFFF",
"a+	c #FDF6EF",
"b+	c #EFC5A6",
"c+	c #E1925C",
"d+	c #D97638",
"e+	c #D66723",
"f+	c #D86B28",
"g+	c #D96A26",
"h+	c #DC702C",
"i+	c #DF7A39",
"j+	c #E4874A",
"k+	c #EBA472",
"l+	c #F4CBAD",
"m+	c #FBECE2",
"n+	c #F9E2D1",
"o+	c #EB9359",
"p+	c #E36C29",
"q+	c #E16127",
"r+	c #DE5B28",
"s+	c #D85427",
"t+	c #D65025",
"u+	c #D14D25",
"v+	c #9F2E1D",
"w+	c #9B2716",
"x+	c #9C2611",
"y+	c #A32B11",
"z+	c #AC3512",
"A+	c #B94414",
"B+	c #CA622A",
"C+	c #E7B18F",
"D+	c #F8E9DF",
"E+	c #DC8346",
"F+	c #D2631F",
"G+	c #D05D1D",
"H+	c #D25F21",
"I+	c #D46023",
"J+	c #D66123",
"K+	c #D86323",
"L+	c #DA6524",
"M+	c #DC6A28",
"N+	c #E07432",
"O+	c #E8935D",
"P+	c #F3C4A6",
"Q+	c #F6D7C4",
"R+	c #EB9664",
"S+	c #E26829",
"T+	c #E15F27",
"U+	c #E05B28",
"V+	c #DA5528",
"W+	c #D35026",
"X+	c #CE4C26",
"Y+	c #9F2F1F",
"Z+	c #9D2816",
"`+	c #9F2912",
" @	c #A62F12",
".@	c #B13A13",
"+@	c #BD4A16",
"@@	c #CC6325",
"#@	c #E5AA82",
"$@	c #F1CEB5",
"%@	c #E0935E",
"&@	c #D2621F",
"*@	c #CE5A1C",
"=@	c #CF5B21",
"-@	c #D05C23",
";@	c #D35E24",
">@	c #D86B31",
",@	c #DA6A2D",
"'@	c #DA6424",
")@	c #DB6424",
"!@	c #DD6627",
"~@	c #E06F30",
"{@	c #E99264",
"]@	c #EDAA87",
"^@	c #E57C48",
"/@	c #E26127",
"(@	c #E25D28",
"_@	c #E15A29",
":@	c #DE5629",
"<@	c #D85127",
"[@	c #D75024",
"}@	c #9E2E1C",
"|@	c #9F2C1A",
"1@	c #9D2814",
"2@	c #A12C13",
"3@	c #AC3917",
"4@	c #BB5025",
"5@	c #CA6935",
"6@	c #DB8D5C",
"7@	c #ECBE9E",
"8@	c #EBB997",
"9@	c #D77738",
"0@	c #CF5D1C",
"a@	c #CE5B21",
"b@	c #CE5B23",
"c@	c #D05D23",
"d@	c #DD8657",
"e@	c #EAAF8C",
"f@	c #E48E59",
"g@	c #DF7230",
"h@	c #DD6724",
"i@	c #DD6424",
"j@	c #DD6528",
"k@	c #E06C34",
"l@	c #E16E3B",
"m@	c #DF5F27",
"n@	c #E15D28",
"o@	c #E25B29",
"p@	c #E2592A",
"q@	c #E0572A",
"r@	c #DA5126",
"s@	c #D84E23",
"t@	c #9F2C1B",
"u@	c #9F2B19",
"v@	c #9E2813",
"w@	c #A8381D",
"x@	c #C06649",
"y@	c #D8987B",
"z@	c #E9C0A9",
"A@	c #F6E1D1",
"B@	c #E6A77A",
"C@	c #D26721",
"D@	c #CF5F20",
"E@	c #CD5B23",
"F@	c #CF5C23",
"G@	c #DC875A",
"H@	c #F3D7C8",
"I@	c #FDF8F4",
"J@	c #F3CCAF",
"K@	c #E89558",
"L@	c #E2772F",
"M@	c #DF6923",
"N@	c #DE6424",
"O@	c #DE6227",
"P@	c #DE5D27",
"Q@	c #DF5B28",
"R@	c #DF5929",
"S@	c #E1592A",
"T@	c #E1572A",
"U@	c #DC5126",
"V@	c #D74D24",
"W@	c #9E2C1A",
"X@	c #9F2C18",
"Y@	c #9F2B14",
"Z@	c #B0462B",
"`@	c #D59682",
" #	c #F1DBD1",
".#	c #FAF1ED",
"+#	c #FDFBFA",
"@#	c #F9EADE",
"##	c #E39B66",
"$#	c #D46A26",
"%#	c #CF5F22",
"&#	c #CD5A23",
"*#	c #D87C4E",
"=#	c #F5CFAF",
"-#	c #EB9957",
";#	c #E47A2F",
">#	c #E16A23",
",#	c #E06325",
"'#	c #DF5E27",
")#	c #DF5A29",
"!#	c #DF582A",
"~#	c #E1582A",
"{#	c #E3582B",
"]#	c #E2572A",
"^#	c #DD5226",
"/#	c #D64D24",
"(#	c #9F2D1B",
"_#	c #9F2D1A",
":#	c #9F2A13",
"<#	c #AB3D22",
"[#	c #C57052",
"}#	c #E0AD96",
"|#	c #F3DDCF",
"1#	c #FBF4EF",
"2#	c #F9E9DD",
"3#	c #E49D68",
"4#	c #D46C28",
"5#	c #CE5F23",
"6#	c #CC5A23",
"7#	c #D88053",
"8#	c #F5DDD1",
"9#	c #FDF9F4",
"0#	c #F6D1AF",
"a#	c #ED9B57",
"b#	c #E77B2F",
"c#	c #E36A24",
"d#	c #E16226",
"e#	c #DF5E28",
"f#	c #E05A29",
"g#	c #E2582A",
"h#	c #DB5227",
"i#	c #D44E24",
"j#	c #9D2E1D",
"k#	c #9E2C19",
"l#	c #9D2914",
"m#	c #A32E13",
"n#	c #B2441F",
"o#	c #C5673C",
"p#	c #DE9F7A",
"q#	c #F2D4BF",
"r#	c #F7E3D4",
"s#	c #E7A97B",
"t#	c #D56E2A",
"u#	c #CE5F22",
"v#	c #CE5D24",
"w#	c #E09063",
"x#	c #F6DFD1",
"y#	c #FEF9F4",
"z#	c #F7D2AF",
"A#	c #EE9B57",
"B#	c #E77A2F",
"C#	c #E36925",
"D#	c #E16227",
"E#	c #E3592B",
"F#	c #E05629",
"G#	c #D85025",
"H#	c #9E2D1C",
"I#	c #9D2915",
"J#	c #A12C12",
"K#	c #AA3512",
"L#	c #B74719",
"M#	c #C9642D",
"N#	c #E09D70",
"O#	c #F3D7C2",
"P#	c #EBB791",
"Q#	c #D77737",
"R#	c #D36123",
"S#	c #E39462",
"T#	c #F7E0D1",
"U#	c #F7D1AF",
"V#	c #EE9A58",
"W#	c #E67830",
"X#	c #E36725",
"Y#	c #E16027",
"Z#	c #E15B29",
"`#	c #DD5427",
" $	c #D95025",
".$	c #A53523",
"+$	c #A33220",
"@$	c #9F2B18",
"#$	c #A22C14",
"$$	c #A73113",
"%$	c #B23C13",
"&$	c #C14E14",
"*$	c #D16A25",
"=$	c #F6DDCA",
"-$	c #F6DBC7",
";$	c #DD7F3B",
">$	c #D26727",
",$	c #CD5C23",
"'$	c #CD5924",
")$	c #D66522",
"!$	c #E59662",
"~$	c #F7D0AF",
"{$	c #EC9658",
"]$	c #E57331",
"^$	c #E05C28",
"/$	c #DA5327",
"($	c #D75026",
"_$	c #D44E25",
":$	c #A43320",
"<$	c #A4311C",
"[$	c #A63018",
"}$	c #A73114",
"|$	c #AF3913",
"1$	c #BD4C18",
"2$	c #D88B5C",
"3$	c #F5DECE",
"4$	c #F7E4D4",
"5$	c #E8AB7D",
"6$	c #D8783A",
"7$	c #CF5F25",
"8$	c #CC5824",
"9$	c #CD5824",
"0$	c #D15C24",
"a$	c #D86623",
"b$	c #E79862",
"c$	c #F8E1D1",
"d$	c #F5C9AA",
"e$	c #E88447",
"f$	c #E26629",
"g$	c #E05D28",
"h$	c #DC5828",
"i$	c #D75126",
"j$	c #A53422",
"k$	c #AA3521",
"l$	c #AB341D",
"m$	c #A93216",
"n$	c #AD3713",
"o$	c #BF5526",
"p$	c #E1A888",
"q$	c #FAEEE6",
"r$	c #FDF7F3",
"s$	c #F3D2B8",
"t$	c #E29764",
"u$	c #D46E35",
"v$	c #CC5A26",
"w$	c #CB5425",
"x$	c #CD5525",
"y$	c #D25C24",
"z$	c #D96623",
"A$	c #E79762",
"B$	c #F8E0D1",
"C$	c #FDF9F6",
"D$	c #F4C9AB",
"E$	c #E78347",
"F$	c #E06529",
"G$	c #DD5C28",
"H$	c #D95628",
"I$	c #D34E25",
"J$	c #AB3723",
"K$	c #B13923",
"L$	c #B03820",
"M$	c #AC3419",
"N$	c #C46842",
"O$	c #EAC7B4",
"P$	c #FCF8F5",
"Q$	c #FDFBF9",
"R$	c #FAEFE7",
"S$	c #EFC9AE",
"T$	c #DF9369",
"U$	c #CF6738",
"V$	c #C95326",
"W$	c #CA5025",
"X$	c #CD5425",
"Y$	c #D35B24",
"Z$	c #D96523",
"`$	c #E69563",
" %	c #F7DFD1",
".%	c #FDF8F6",
"+%	c #F4CDB2",
"@%	c #E9925B",
"#%	c #E27031",
"$%	c #DA5927",
"%%	c #D45226",
"&%	c #D34F25",
"*%	c #D24E25",
"=%	c #B53B23",
"-%	c #B43A21",
";%	c #B33A20",
">%	c #B44326",
",%	c #CB7D61",
"'%	c #E9C6B5",
")%	c #F2DACB",
"!%	c #F3D9C9",
"~%	c #F2D6C5",
"{%	c #E4A88A",
"]%	c #CD653A",
"^%	c #C64F25",
"/%	c #C64C26",
"(%	c #C94D26",
"_%	c #CD5225",
":%	c #D25924",
"<%	c #D76124",
"[%	c #E48F61",
"}%	c #EDB595",
"|%	c #E68F5B",
"1%	c #E06F32",
"2%	c #DD6026",
"3%	c #D85528",
"4%	c #A12915",
"5%	c #B53921",
"6%	c #B63C23",
"7%	c #B9452B",
"8%	c #C26044",
"9%	c #CE7F60",
"0%	c #D4855F",
"a%	c #D68355",
"b%	c #D78557",
"c%	c #D88A63",
"d%	c #D07047",
"e%	c #C55125",
"f%	c #C34B25",
"g%	c #C24826",
"h%	c #C54827",
"i%	c #C84B26",
"j%	c #CC5026",
"k%	c #D15625",
"l%	c #D55C25",
"m%	c #DA6A36",
"n%	c #DB6630",
"o%	c #D95C26",
"p%	c #D95827",
"q%	c #D85428",
"r%	c #D75027",
"s%	c #B53B21",
"t%	c #B63D24",
"u%	c #B9472C",
"v%	c #BC4F30",
"w%	c #BE522B",
"x%	c #C25527",
"y%	c #C35728",
"z%	c #C45529",
"A%	c #C14D24",
"B%	c #C04A25",
"C%	c #BF4626",
"D%	c #C04526",
"E%	c #C14527",
"F%	c #C54627",
"G%	c #C84927",
"H%	c #CB4E26",
"I%	c #CE5226",
"J%	c #D15427",
"K%	c #D45527",
"L%	c #D45427",
"M%	c #D55227",
"N%	c #D65028",
"O%	c #D64E27",
"P%	c #962716",
"Q%	c #B84127",
"R%	c #B84227",
"S%	c #BA4525",
"T%	c #BB4824",
"U%	c #BB4624",
"V%	c #BB4426",
"W%	c #BD4226",
"X%	c #BE4227",
"Y%	c #BE4228",
"Z%	c #C14428",
"`%	c #C54628",
" &	c #CA4B27",
".&	c #CC4D28",
"+&	c #CE4D27",
"@&	c #CF4E26",
"#&	c #D04D25",
"$&	c #D24C27",
"%&	c #A72C15",
"&&	c #B73F26",
"*&	c #B93F27",
"=&	c #B94126",
"-&	c #B84025",
";&	c #B74026",
">&	c #BA3F27",
",&	c #BC4027",
"'&	c #BD4128",
")&	c #BF4328",
"!&	c #C44627",
"~&	c #C64728",
"{&	c #C64827",
"]&	c #C84826",
"^&	c #CA4924",
"/&	c #CC4922",
"(&	c #B33015",
"_&	c #B02E14",
":&	c #A42A14",
"<&	c #B53D23",
"[&	c #B73E26",
"}&	c #B83F27",
"|&	c #B94027",
"1&	c #B84027",
"2&	c #B83F26",
"3&	c #B63D26",
"4&	c #B73D26",
"5&	c #B93E26",
"6&	c #BB4027",
"7&	c #BC4128",
"8&	c #BD4127",
"9&	c #C04327",
"0&	c #C24527",
"a&	c #C84725",
"b&	c #C84723",
"c&	c #A62C16",
"d&	c #AF2E14",
"e&	c #AB2C14",
"f&	c #B33B27",
"g&	c #B43C27",
"h&	c #B73F28",
"i&	c #B53C24",
"j&	c #BA3E26",
"k&	c #BA3E27",
"l&	c #BA4027",
"m&	c #BF4226",
"n&	c #C14426",
"o&	c #C04324",
"p&	c #C34425",
"q&	c #942718",
"r&	c #A02915",
"s&	c #9A2715",
"t&	c #B53D25",
"u&	c #B63D25",
"v&	c #B83D24",
"w&	c #B73C23",
"x&	c #B83F25",
"y&	c #C04328",
"                                                                      ",
"                                                                      ",
"                          . + @ # $ % & * = -                         ",
"                    ; > , ' ) ! ~ { ] ^ / ( _ : <                     ",
"                  [ } | 1 2 3 4 5 6 7 7 8 9 0 a b c                   ",
"                d ) e f g h i j k l m n o p q r s t u                 ",
"              v w x y z A B C D E F G H I J K L M N O P               ",
"            Q R S T U V W X Y Z `  ...+.@.#.$.%.&.*.=.-.;.            ",
"          >.,.'.).!.~.{.].^./.(._.:.<.[.}.|.1.2.3.4.5.6.7.8.          ",
"        9.0.a.b.c.d.e.f.g.h.i.j.k.l.m.n.o.p.q.r.s.t.u.v.w.x.y.        ",
"      z.A.B.C.D.E.F.G.H.I.J.K.L.M.N.O.P.Q.R.S.T.U.V.W.X.Y.Z.`. +      ",
"      .+++@+#+$+%+&+*+=+-+;+>+,+'+)+!+~+{+]+^+/+(+_+:+<+[+}+|+1+      ",
"      2+3+4+5+6+7+8+9+0+a+b+c+d+e+f+g+h+i+j+k+l+m+n+o+p+q+r+s+t+u+    ",
"    .+v+w+x+y+z+A+B+C+D+b+E+F+G+H+I+J+K+L+M+N+O+P+Q+R+S+T+U+V+W+X+    ",
"    Y+v+Z+`+ @.@+@@@#@$@%@&@*@=@-@;@>@,@'@)@!@~@{@]@^@/@(@_@:@<@[@    ",
"    }@|@1@2@3@4@5@6@7@8@9@0@a@b@c@d@e@f@g@h@i@j@k@l@m@n@o@p@q@r@s@    ",
"    t@u@v@w@x@y@z@ .A@B@C@D@E@F@G@H@I@J@K@L@M@N@O@P@Q@R@S@p@T@U@V@    ",
"    W@X@Y@Z@`@ #.#+#@###$#%#&#*#H@0+0+I@=#-#;#>#,#'#)#!#~#{#]#^#/#    ",
"    (#_#:#<#[#}#|#1#2#3#4#5#6#7#8#0+0+0+9#0#a#b#c#d#e#f#g#{#T@h#i#    ",
"    j#k#l#m#n#o#p#q#r#s#t#u#6#v#w#x#0+0+0+y#z#A#B#C#D#n@p@E#F#r@G#    ",
"    } H#I#J#K#L#M#N#O#P#Q#%#6#E@R#S#T#0+0+0+y#U#V#W#X#Y#Z#~#`#r@ $    ",
"    .$+$@$#$$$%$&$*$=$-$;$>$,$'$-@)$!$T#0+0+0+y#~${$]$d#^$R@/$($_$    ",
"      :$<$[$}$|$1$2$3$4$5$6$7$8$9$0$a$b$c$0+0+0+I@d$e$f$g$h$i$_$      ",
"      j$k$l$m$n$o$p$q$r$s$t$u$v$w$x$y$z$A$B$0+0+C$D$E$F$G$H$`.I$      ",
"      J$K$L$M$U N$O$P$Q$R$S$T$U$V$W$X$Y$Z$`$ %.%+%@%#%m@$%%%&%*%      ",
"        =%-%;%>%,%'%)%!%!%~%{%]%^%/%(%_%:%<%[%}%|%1%2%w.3%W+*%  4%    ",
"          5%6%7%8%9%0%a%b%c%d%e%f%g%h%i%j%k%l%m%n%o%p%q%r%_$  4%4%    ",
"            s%t%u%v%w%x%y%z%A%B%C%D%E%F%G%H%I%J%K%L%M%N%O%  4%P%4%    ",
"              s%t%Q%R%S%T%U%S%V%W%X%Y%Z%`%G% &.&+&@&#&$&  4%%&4%4%    ",
"                s%t%&&*&=&-&;&&&>&,&'&)&Z%!&~&{&]&^&/&  4%(&_&:&4%    ",
"                  <&[&}&|&1&2&3&4&5&6&7&8&9&0&!&a&b&  4%c&d&e&4%4%    ",
"                    f&g&[&h&[&i&t%5&j&k&l&m&n&o&p&  4%q&r&:&4%s&4%    ",
"                          t&u&i&=%v&w&v&x&y&      4%4%4%4%4%4%4%4%    ",
"                                                                      ",
"                                                                      "};
