/* XPM */
static char * open_game_empty_xpm[] = {
"16 16 38 1",
" 	c None",
".	c #47664B",
"+	c #000000",
"@	c #618C66",
"#	c #ABC4AE",
"$	c #B4CBB7",
"%	c #B0C7B2",
"&	c #DFE8E0",
"*	c #9DBAA0",
"=	c #BACFBD",
"-	c #BDD0BF",
";	c #92B396",
">	c #89AC8D",
",	c #6A976F",
"'	c #E3ECE4",
")	c #99B89D",
"!	c #95B498",
"~	c #537657",
"{	c #B3CAB6",
"]	c #DCE7DE",
"^	c #E1EAE2",
"/	c #D8E3D9",
"(	c #C4D5C6",
"_	c #B2C9B5",
":	c #9CB99F",
"<	c #ACC5AF",
"[	c #CDDCCF",
"}	c #C0D3C2",
"|	c #B1C8B4",
"1	c #6E9973",
"2	c #B9CEBC",
"3	c #A3BEA6",
"4	c #97B69B",
"5	c #9EBBA1",
"6	c #98B79C",
"7	c #96B599",
"8	c #9BB99E",
"9	c #46654A",
"                ",
"     .++++.     ",
"    +@####@+    ",
"   +$%&&&&#*+   ",
"  +=-&&&&&&;>+  ",
" .,=&'&&#)!!;~. ",
" +{&]^/(_:!!>>+ ",
" +<&&&[}|:!>>1+ ",
" +#&&22$34!>>1+ ",
" +#&&33567!>>1+ ",
" .@8&444!!>>>9. ",
"  +67!!!>>>>1+  ",
"   +!!>>>>>1+   ",
"    +~>>119+    ",
"     .++++.     ",
"                "};
