/* XPM */
static char * qtlobby_logo_no_triangle_16x16_xpm[] = {
"16 16 159 2",
"  	c None",
". 	c #5B3E49",
"+ 	c #8B6766",
"@ 	c #AA7C7A",
"# 	c #AA7D7B",
"$ 	c #8A686C",
"% 	c #704448",
"& 	c #403042",
"* 	c #A16E6B",
"= 	c #E9998A",
"- 	c #F59582",
"; 	c #F99475",
"> 	c #F49882",
", 	c #F39A88",
"' 	c #E79E8F",
") 	c #AA7873",
"! 	c #3D2E3F",
"~ 	c #3F3141",
"{ 	c #B06559",
"] 	c #F48F76",
"^ 	c #F69277",
"/ 	c #F2AE80",
"( 	c #FDF3C4",
"_ 	c #F7D69F",
": 	c #F0AF88",
"< 	c #EDAC8F",
"[ 	c #EEA883",
"} 	c #BB7064",
"| 	c #3D3140",
"1 	c #773D3B",
"2 	c #EF8269",
"3 	c #FBC38F",
"4 	c #FAE4AE",
"5 	c #FBECAD",
"6 	c #FFFFFF",
"7 	c #FFFEF3",
"8 	c #FDF2C8",
"9 	c #FFFDF1",
"0 	c #F4C986",
"a 	c #E39377",
"b 	c #833E3B",
"c 	c #56353F",
"d 	c #D3553D",
"e 	c #F38264",
"f 	c #FAE2AD",
"g 	c #FFFFFC",
"h 	c #FDF4DA",
"i 	c #FCE9AE",
"j 	c #FEFBE9",
"k 	c #F3C391",
"l 	c #E38672",
"m 	c #C04B36",
"n 	c #62353A",
"o 	c #693A3C",
"p 	c #E36248",
"q 	c #EB8956",
"r 	c #FBE9A9",
"s 	c #FFFFFB",
"t 	c #F6BE8C",
"u 	c #F39063",
"v 	c #F38E6C",
"w 	c #F39770",
"x 	c #F6C18B",
"y 	c #EC8A5E",
"z 	c #E8715A",
"A 	c #D34E32",
"B 	c #62383C",
"C 	c #7B3D3A",
"D 	c #EE764F",
"E 	c #FCEFC7",
"F 	c #FCEED0",
"G 	c #F18353",
"H 	c #F47962",
"I 	c #FA9E6D",
"J 	c #F89F6E",
"K 	c #EE7959",
"L 	c #E97055",
"M 	c #E2593F",
"N 	c #D44E34",
"O 	c #7D3C39",
"P 	c #7B3B3A",
"Q 	c #E56243",
"R 	c #F1BA81",
"S 	c #FFFEF7",
"T 	c #F9DA98",
"U 	c #F0714C",
"V 	c #F89562",
"W 	c #FFF6E0",
"X 	c #FFFAE8",
"Y 	c #F5A06B",
"Z 	c #E65D42",
"` 	c #E0553A",
" .	c #D54F34",
"..	c #7D3D3B",
"+.	c #69393D",
"@.	c #DF5B41",
"#.	c #E26D35",
"$.	c #FCF0CF",
"%.	c #FDF5DA",
"&.	c #F07850",
"*.	c #F68A5C",
"=.	c #FEEFDC",
"-.	c #FFF8F7",
";.	c #FEF4E5",
">.	c #EF9662",
",.	c #E45A38",
"'.	c #6C393C",
").	c #56363E",
"!.	c #C5503B",
"~.	c #E77A42",
"{.	c #FFFDF9",
"].	c #FFFFFE",
"^.	c #F4A473",
"/.	c #F07053",
"(.	c #F69D60",
"_.	c #FEEADC",
":.	c #FFF4F2",
"<.	c #FEF2DF",
"[.	c #ED8551",
"}.	c #C24C35",
"|.	c #4D3440",
"1.	c #78393A",
"2.	c #D86F43",
"3.	c #F3A967",
"4.	c #F1AA77",
"5.	c #EB774D",
"6.	c #EC6E54",
"7.	c #EE7154",
"8.	c #F29261",
"9.	c #FDE7D3",
"0.	c #FDE5C5",
"a.	c #DC6D3B",
"b.	c #803E3A",
"c.	c #994134",
"d.	c #CB5737",
"e.	c #E66448",
"f.	c #E86A50",
"g.	c #EB6E56",
"h.	c #EB7159",
"i.	c #EC7256",
"j.	c #F1895C",
"k.	c #DD774A",
"l.	c #9D4838",
"m.	c #4D333F",
"n.	c #703939",
"o.	c #C3513C",
"p.	c #DE674F",
"q.	c #E67059",
"r.	c #E6745D",
"s.	c #E16E58",
"t.	c #D45B43",
"u.	c #743B3C",
"v.	c #4A343F",
"w.	c #55333D",
"x.	c #6A393C",
"y.	c #844542",
"z.	c #8B4946",
"A.	c #6F3B3C",
"B.	c #503541",
"                                ",
"          . + @ # $ %           ",
"      & * = - ; > , ' ) !       ",
"    ~ { ] ^ / ( _ : < [ } |     ",
"    1 2 3 4 5 6 7 8 9 0 a b     ",
"  c d e f 6 g h i j 6 k l m n   ",
"  o p q r s t u v w x y z A B   ",
"  C D E 6 F G H I J K L M N O   ",
"  P Q R S T U V W X Y Z `  ...  ",
"  +.@.#.$.%.&.*.=.-.;.>.,.N '.  ",
"  ).!.~.{.].^./.(._.:.<.[.}.|.  ",
"    1.2.3.4.5.6.7.8.9.0.a.b.    ",
"      c.d.e.f.g.h.i.j.k.l.m.    ",
"        n.o.p.q.r.s.t.u.v.      ",
"          w.x.y.z.A.B.          ",
"                                "};
