<?xml version="1.0" encoding="UTF-8" standalone="no"?>
<!-- Created with Inkscape (http://www.inkscape.org/) -->
<svg
   xmlns:dc="http://purl.org/dc/elements/1.1/"
   xmlns:cc="http://creativecommons.org/ns#"
   xmlns:rdf="http://www.w3.org/1999/02/22-rdf-syntax-ns#"
   xmlns:svg="http://www.w3.org/2000/svg"
   xmlns="http://www.w3.org/2000/svg"
   xmlns:xlink="http://www.w3.org/1999/xlink"
   xmlns:sodipodi="http://sodipodi.sourceforge.net/DTD/sodipodi-0.dtd"
   xmlns:inkscape="http://www.inkscape.org/namespaces/inkscape"
   width="64px"
   height="64px"
   id="svg28818"
   sodipodi:version="0.32"
   inkscape:version="0.46"
   sodipodi:docname="rank6-icon.svg"
   inkscape:output_extension="org.inkscape.output.svg.inkscape"
   inkscape:export-filename="/home/jaked/qtlobby/icons/rank6-icon.png"
   inkscape:export-xdpi="90"
   inkscape:export-ydpi="90">
  <defs
     id="defs28820">
    <linearGradient
       id="linearGradient9459">
      <stop
         style="stop-color:#ffb90f;stop-opacity:1;"
         offset="0"
         id="stop9461" />
      <stop
         style="stop-color:#ffcc00;stop-opacity:0.36781609;"
         offset="1"
         id="stop9463" />
    </linearGradient>
    <linearGradient
       id="linearGradient7167">
      <stop
         style="stop-color:#6090a9;stop-opacity:1;"
         offset="0"
         id="stop7169" />
      <stop
         style="stop-color:#6090a9;stop-opacity:0;"
         offset="1"
         id="stop7171" />
    </linearGradient>
    <linearGradient
       id="linearGradient29646">
      <stop
         style="stop-color:#6090a9;stop-opacity:1;"
         offset="0"
         id="stop29648" />
      <stop
         style="stop-color:#acc5d2;stop-opacity:0;"
         offset="1"
         id="stop29650" />
    </linearGradient>
    <linearGradient
       x1="0"
       y1="0"
       x2="1"
       y2="0"
       gradientUnits="userSpaceOnUse"
       gradientTransform="matrix(38.796494,-38.79596,-38.79596,-38.796494,61.71582,208.25586)"
       spreadMethod="pad"
       id="linearGradient10240">
      <stop
         style="stop-opacity:1;stop-color:#fafdfe"
         offset="0"
         id="stop10242" />
      <stop
         style="stop-opacity:1;stop-color:#def1fa"
         offset="0.252747"
         id="stop10244" />
      <stop
         style="stop-opacity:1;stop-color:#b8d2e0"
         offset="0.472534"
         id="stop10246" />
      <stop
         style="stop-opacity:1;stop-color:#b0c9d6"
         offset="0.730774"
         id="stop10248" />
      <stop
         style="stop-opacity:1;stop-color:#99b1bd"
         offset="1"
         id="stop10250" />
    </linearGradient>
    <inkscape:perspective
       sodipodi:type="inkscape:persp3d"
       inkscape:vp_x="0 : 32 : 1"
       inkscape:vp_y="0 : 1000 : 0"
       inkscape:vp_z="64 : 32 : 1"
       inkscape:persp3d-origin="32 : 21.333333 : 1"
       id="perspective28826" />
    <linearGradient
       inkscape:collect="always"
       xlink:href="#linearGradient29646"
       id="linearGradient29652"
       x1="55.809269"
       y1="166.40295"
       x2="114.69387"
       y2="187.63933"
       gradientUnits="userSpaceOnUse" />
    <linearGradient
       inkscape:collect="always"
       xlink:href="#linearGradient29646"
       id="linearGradient29662"
       gradientUnits="userSpaceOnUse"
       x1="55.809269"
       y1="166.40295"
       x2="104.43023"
       y2="195.27112" />
    <linearGradient
       inkscape:collect="always"
       xlink:href="#linearGradient29646"
       id="linearGradient29664"
       gradientUnits="userSpaceOnUse"
       x1="55.809269"
       y1="166.40295"
       x2="114.69387"
       y2="187.63933" />
    <linearGradient
       inkscape:collect="always"
       xlink:href="#linearGradient7167"
       id="linearGradient7173"
       x1="-59.550484"
       y1="27.428572"
       x2="-0.52571665"
       y2="27.428572"
       gradientUnits="userSpaceOnUse" />
    <linearGradient
       inkscape:collect="always"
       xlink:href="#linearGradient9459"
       id="linearGradient9465"
       x1="-59.550484"
       y1="27.428572"
       x2="29.476475"
       y2="36.120796"
       gradientUnits="userSpaceOnUse" />
    <linearGradient
       inkscape:collect="always"
       xlink:href="#linearGradient9459"
       id="linearGradient9467"
       gradientUnits="userSpaceOnUse"
       x1="-59.550484"
       y1="27.428572"
       x2="29.476475"
       y2="36.120796" />
  </defs>
  <sodipodi:namedview
     id="base"
     pagecolor="#ffffff"
     bordercolor="#666666"
     borderopacity="1.0"
     inkscape:pageopacity="0.0"
     inkscape:pageshadow="2"
     inkscape:zoom="8.9375"
     inkscape:cx="26.049722"
     inkscape:cy="32"
     inkscape:current-layer="layer1"
     showgrid="true"
     inkscape:document-units="px"
     inkscape:grid-bbox="true"
     inkscape:window-width="1280"
     inkscape:window-height="778"
     inkscape:window-x="-4"
     inkscape:window-y="-3" />
  <metadata
     id="metadata28823">
    <rdf:RDF>
      <cc:Work
         rdf:about="">
        <dc:format>image/svg+xml</dc:format>
        <dc:type
           rdf:resource="http://purl.org/dc/dcmitype/StillImage" />
      </cc:Work>
    </rdf:RDF>
  </metadata>
  <g
     id="layer1"
     inkscape:label="Layer 1"
     inkscape:groupmode="layer">
    <g
       id="g7175"
       transform="translate(62.0381,4.5714283)"
       style="fill:url(#linearGradient9465);fill-opacity:1">
      <path
         sodipodi:nodetypes="csssccsccccccccccccccsccssccscccccccscccccsccccsccccccccssccsccsccssccccccsccccccssssccc"
         d="M -35.024705,22.238453 C -34.600516,22.317727 -34.075179,22.092356 -33.821697,21.585392 C -33.584946,21.111889 -33.192275,20.809347 -32.721804,20.691729 C -32.29555,20.585165 -31.859171,20.416756 -31.415682,20.416756 C -30.957394,20.416756 -30.430362,20.348013 -29.972073,20.348013 C -27.959014,20.526043 -26.250381,20.92591 -24.67884,22.822771 C -24.418483,23.169912 -24.197637,23.470306 -24.197637,23.922663 C -24.197637,24.362028 -24.128893,24.883495 -24.128893,25.366272 C -24.275996,26.19028 -26.511178,27.036509 -25.641246,27.222341 C -21.691945,31.472606 -20.305938,24.145038 -20.348012,21.035445 C -20.742068,20.247335 -21.234907,20.547475 -21.035445,20.348013 C -12.413665,14.24465 -9.141719,9.9514454 -3.7121376,-2.6809881 C -3.2699806,-0.17375071 -3.9299012,3.4108645 -4.3308272,5.9119224 C -3.7041832,6.4004193 -2.5288843,5.0749396 -1.8560683,4.3308271 C -1.8382683,5.4921186 -3.3540474,10.661824 -4.3995702,12.511278 C -3.3079892,11.796624 -2.2075502,11.081958 -1.0311492,10.517723 C -0.89404368,12.169705 -3.3850582,16.739401 -4.7432862,19.110633 C -3.6334202,19.013084 -2.5813142,18.587081 -1.5123522,18.285714 C -2.5578522,20.575579 -4.5074118,22.351576 -6.1181528,24.26638 C -7.5898145,25.857069 -6.2252823,25.778732 -4.8120302,25.778732 C -6.0658932,26.920497 -7.468275,27.892775 -8.7991402,28.940923 C -9.2183622,29.192456 -9.7234532,29.628356 -9.0053702,29.628356 C -8.4237802,29.628356 -7.6904692,29.557418 -7.1493012,29.422126 C -5.9999281,29.225811 -5.2645773,28.698522 -4.5370572,28.734694 C -5.1829777,29.332627 -7.9312422,31.153591 -8.4554242,31.415682 C -9.1393262,31.757633 -9.3097342,31.628553 -8.7991402,32.309344 C -8.4570242,32.765499 -7.8084912,33.210068 -7.2867882,33.340494 C -8.2540855,34.399386 -11.221677,34.809678 -13.061225,35.196562 C -13.410803,35.266478 -12.108694,36.289049 -11.823846,36.502685 C -11.071516,37.066932 -10.471458,36.980142 -9.6240602,37.121375 C -9.9487004,37.412288 -11.98432,37.439598 -12.648765,37.465091 C -13.623114,37.424231 -14.579446,37.596197 -15.535983,37.740064 C -16.350652,37.902998 -16.789989,37.706812 -16.29216,38.70247 C -15.861398,39.416727 -15.477746,40.239297 -14.779807,40.696025 C -15.316548,40.696025 -15.814835,40.627282 -16.360903,40.627282 C -19.507583,40.701089 -21.735814,39.114264 -24.06015,37.190118 C -24.665935,36.584333 -24.496734,36.729409 -24.197637,37.327604 C -23.981275,37.760327 -23.669622,38.111607 -23.578947,38.564984 C -23.32233,40.309436 -24.908075,41.44831 -26.053705,42.552094 C -26.220772,44.386438 -26.099114,45.02151 -25.709989,46.814178 C -25.278531,48.347342 -24.476402,49.665988 -24.128893,51.213748 C -24.291795,52.568211 -26.237053,53.449345 -27.222341,54.925886 C -27.557943,55.373356 -27.715568,56.073875 -27.841031,56.575725 C -27.996846,57.198984 -27.686366,57.675618 -28.528463,57.675618 C -29.740993,57.512306 -31.568352,57.675618 -32.790547,57.675618 C -33.706718,56.784061 -33.894754,54.60152 -35.127819,53.34479 C -36.304366,52.394009 -36.944089,52.335632 -36.708915,50.938775 C -36.278031,49.902996 -36.412904,48.83508 -36.158663,47.760258 C -35.855364,46.478041 -35.172831,45.185996 -34.715359,43.92696 C -34.5555,43.287524 -34.360049,43.136494 -34.990333,42.758324 C -36.409562,41.643511 -36.931608,40.146137 -37.052631,38.427497 C -37.052631,37.656244 -36.885366,37.453179 -37.602577,37.740064 C -39.938158,38.728765 -43.548758,40.602878 -46.058003,41.039742 C -45.692116,40.209535 -45.170907,39.580877 -44.54565,38.70247 C -44.272746,38.02021 -45.696958,38.49624 -46.126746,38.49624 C -47.876216,38.739247 -49.642059,37.878696 -50.251343,37.258861 C -49.609167,37.00199 -49.039518,36.824807 -48.395274,36.502685 C -47.988336,36.299216 -47.623242,35.852282 -47.501612,35.609022 C -47.498372,35.602542 -48.713928,35.402792 -49.56391,35.402792 C -52.803706,35.755149 -54.774562,33.039866 -54.7884,32.996778 C -54.129876,32.996778 -52.519376,32.501727 -51.901182,32.378088 C -50.941081,32.186068 -51.381683,32.019148 -51.901182,31.759398 C -52.958176,31.302706 -55.536288,30.105978 -55.888293,29.009667 C -55.319292,29.123467 -53.005232,29.252347 -52.519871,29.009667 C -51.952554,28.726008 -51.939952,28.946218 -52.588615,28.45972 C -53.373164,27.613046 -55.758742,26.012562 -56.644469,25.091299 C -56.077627,25.091299 -53.652444,25.366272 -53.069818,25.366272 C -52.615877,25.366272 -51.150653,25.705754 -51.694952,25.297529 C -52.255262,24.877297 -52.780501,24.349467 -53.276048,23.85392 C -55.206499,22.217086 -58.168549,18.919036 -58.363051,18.216971 C -56.780138,19.041376 -55.075297,19.63354 -53.344791,20.073039 C -54.834559,16.910763 -57.812054,14.001521 -59.050484,11.067669 C -58.434011,11.375905 -56.789185,11.655864 -56.094522,11.755102 C -56.794272,9.4741712 -57.503624,7.1939333 -58.088078,4.8807734 C -57.624738,5.2282778 -57.18999,5.4673036 -56.713212,5.7056924 C -56.053733,6.0354324 -55.888292,6.4287014 -55.888292,5.4307197 C -55.72149,2.6230621 -56.06595,-0.66348821 -56.300752,-2.8184747 C -47.002777,12.569949 -44.749556,14.743817 -39.389903,19.45435 C -39.389903,20.410616 -39.056305,19.980846 -39.802363,20.279269 C -43.006948,24.38692 -40.492123,29.110336 -35.609022,29.009667 C -34.686803,28.833688 -34.221374,28.396446 -33.615467,27.841031 C -33.406346,27.422789 -33.340494,27.168544 -33.340494,26.672395 C -33.340494,26.089506 -33.411192,25.914264 -33.821697,25.503759 C -34.148568,25.176888 -34.724449,25.196687 -35.127819,25.297529 C -35.598095,25.415098 -35.787545,25.912624 -36.158968,26.191192 C -36.618927,26.536161 -37.110561,25.615758 -37.190118,25.297529 C -37.426091,24.243549 -37.193612,23.729386 -36.571428,22.960257 C -36.165434,22.655762 -35.438948,22.445574 -35.024705,22.238453 z"
         style="fill:url(#linearGradient9467);fill-opacity:1;fill-rule:evenodd;stroke:#000000;stroke-width:1px;stroke-linecap:butt;stroke-linejoin:miter;stroke-opacity:1"
         id="path7177" />
      <path
         transform="translate(-62.143931,-4.8120301)"
         d="M 31.965629,28.390978 A 0.89366275,0.41245973 0 1 1 30.178303,28.390978 A 0.89366275,0.41245973 0 1 1 31.965629,28.390978 z"
         sodipodi:ry="0.41245973"
         sodipodi:rx="0.89366275"
         sodipodi:cy="28.390978"
         sodipodi:cx="31.071966"
         id="path29668"
         style="opacity:1;fill:url(#linearGradient9465);fill-opacity:1;stroke:#000000;stroke-width:1.14100003000000005;stroke-linejoin:round;stroke-miterlimit:4;stroke-dasharray:none;stroke-dashoffset:0;stroke-opacity:1"
         sodipodi:type="arc" />
    </g>
  </g>
</svg>
