/* XPM */
static char *logo__[] = {
/* columns rows colors chars-per-pixel */
"202 53 56 1",
"  c #090907",
". c #0E0E0C",
"X c #0F100B",
"o c #11110F",
"O c #151513",
"+ c #191917",
"@ c #1C1C1A",
"# c #20201E",
"$ c #242422",
"% c #292927",
"& c #2C2C2A",
"* c #30302E",
"= c #353533",
"- c #383836",
"; c #3D3D3B",
": c #41413F",
"> c #454543",
", c #484846",
"< c #4C4C4B",
"1 c #50504E",
"2 c #545453",
"3 c #595957",
"4 c #5C5C5B",
"5 c #5F605B",
"6 c #61615F",
"7 c #646463",
"8 c #686866",
"9 c #6C6C6B",
"0 c #71716F",
"q c #747473",
"w c #787876",
"e c #7B7B7B",
"r c #81817F",
"t c #848483",
"y c #898987",
"u c #8C8C8C",
"i c #91918F",
"p c #939392",
"a c #999997",
"s c #9B9B9A",
"d c #A0A09E",
"f c #A5A5A5",
"g c #ACACAC",
"h c #B1B1AF",
"j c #B4B4B4",
"k c #B9B9B7",
"l c #BCBCBC",
"z c #C0C0BE",
"x c #C4C4C4",
"c c #CCCCCB",
"v c #D0D0CE",
"b c #D2D2D2",
"n c #DBDBDB",
"m c #E0E0DE",
"M c #E4E4E4",
"N c #EAEAEA",
/* pixels */
"O@OO+oO@oO@OO+O+OO+OOoo@o+@OO@O@o++o+@oO+o++++oOO++oo@o+#Oo#O@OO+oO@oO@OO+O+OO++Ooo@o+@OO#O@OO@oO@.O@OO+++OOOOOOo@o+#O@OO+o+@.O@O++O+O+++Ooo+O+#+o#O+OO+o+@oO@oO++OOOO++oo@o+#Oo#+@o++o+@.+@o++++oO+O+oo@o",
"@O+@oO#OOoOO+OO@+@o@+O$OO@ @@O#O+@oO@OOo+O+OO@@@o++O$oO@ +@O@OO@oO#OOOOO+OO@+@o+@O$oO@ @@O@OO@Oo#OOOOO+OO@@@o@+O$oO@ @OO@Oo#OOOOO+OO@++O+++$O++ #+O+O+@oo#OOOOO+OO@+@o++O$oO@ @@O@o+@oo#OOoOO+OO@@@o@++#oO",
"+.@O+#.O@+@++O#++O@OO@OO@oO++OOo@O+#oO@++@+O#++O@oo@oO@oO+O++.@++#.O@+++++#O+O@Oo@OO@oOOOO+o@O+#oO@+@+OO#O+O@OO@OO@oOOo@O+#oO@+@++O$++O+.O+OO+.O+O++.@++#.O@+++++#++O@oO#o+@oO++++o@++#o+@@+@++#++o@oO@oO@",
"O@oo+OO+O.@Oo@+O.++++OO@+o@Oo@o@oo+OO+O.@oo@+oo+++@OO@+o#Oo@o@ooO+O+O.@oo@+Oo++++OO@+.$Oo@O@O.+OO+O.@OO@OOo++++OO@+o#O@oo+OOOO.@OO++O.++++OO#+.$O.@O#o.+OO+O.@Oo@OOo++++oO@+o#Oo@o@o.+OO+o.@oo++Oo++++OO@@",
"+OO+.O@O@@++#OOO+@o#@o#o+@oO+++oO+.O#o@@++#oo+O@o#@o#o+@oO+++oO+.O#o@@++#OoO+@o#@.#oO@OO@O@OOO.o@O@#O+#OOOO@.#@.@O+@o+OO+.O@o@@++#O.O++.#@o#o++O++++OO+.o#o@@O+#OoOO@o#@o#o++oO+++oO+.o#.*,<>*o.o+@o#@o#o+",
"O.#OO@OOOOo++.@O+o+OO@oo@OoO+o+.#+o@O+OOo++o@O@o+OO@oO@OoO+o+.#+O@o+O+o++.#O+o+OO@Oo@O.OOOO.$OO@OOOOo++.@O@o@OO@oo@OoO.@OO@OOOOo++.#O+O+O+@.O+Oo++.+ #+O#oOO+O++o@O@o+O+@oo@OoO+.+.#+O@%uupuue9#O+o+OO@oo@",
"O#Oo@OO@+.#O.@OOO+OO++O@+.@OOOO@Oo++O@+.#O.@++o++O@+O@+.@OOOO#Oo@+O@+.#O.++OO++O+@O@@.@OOOO#OO@OO@@ @O.@O+O+OO@@O@+.@O@Oo@OO@+.#O.++OO++O+++#+.+OOOO#O.+O+@+.#Oo++OO+OO++O@+.@OOOO#Oo@O=t>%&>ee9OO+OO@+O@+",
"@OO@Oo@OO#O+#oO@@+o@@o++.#O+@O@+O@OO@oO#O+#oO+#+o@+o++o#O+@O@OO@oo@OO#O+$oO+#+o@@o@@o#O+#+@+O@OO#OO$++$OO@#+O@@o@@O#+@++@OO#O+$O+$oO+#+.++o++.#O++O++++OO@OO#O+#oO@@+o@+.@+.#O+@O@+O@oO@.o#o+3tp+@+.++o@+.",
"O.#OO$oo#.+#o+#OOO#Oo#@o@OO#+oOo#OO#oo#.@@o+#+OO@Oo#@o@OO#+oOo#oO$OO$ @#O@#+++$+O$@O$O@$@O+O$O+%OO$O@$O@$+O@$+O$@O$OOOO$++$O+$o@$O+$+O+#+O#@o@OO#+OOo#OO$Oo#.+@o+@OOO#OO#@o@OO#+oOo#Oo#oo#oO@-tu=oO#Oo#+o@",
"O@OOOOO@.@OO++OOO#o+#oo@oO++O+O@oO+o+@o@OO++OoO@O+#Oo+.+++O@O@+++O+#O#++@@@++$+@$@+@O@##+@@#+@@+@#O$@@@@@@@$+@%+O$O@$@$@@@+@@O$@+##+++$++$+O@O+#+O+O@OOOoO+o@OO+++oO@o+#oo+oO@+o+O@oO+oo+.+oo4euoO@o+#Oo+o",
"OOOO+++.@@OoOOO@@.+@OO@+O#O++OOOO++++o@#ooOOO@@.@@O+@@+$O#@@+@+@@@@O#%@+@@@$#+#$@#$#@%@$##@#####$O$%@@$@$$$O$$@$$$$%@@@@###$+$%@+#+#$#+#$+@##+$+$+++++@@+@o@#OOOO+@@o@@o+@+O@O@++o+O+++O.+@o+ee4++.+@o+@+O",
"@+OOO@+O#O++OOO+OO@O.@+O#O++O@+++oO@+o#o@@o++++O#Oo@@@#+@@@###@+@$#@%@$$@$#$#@%#@%$$&#$$#%$$##$%$$&@%$#$$$$@%#@%$$%@$$$$@$$$#%#$$#$$$#+$@+$$+%+##+##@@O+#@O$O@@O+O+Oo@Oo@+O#O++O@+O+oo@+o@o@qtqO+oo@o.@+O#",
"O@OO+.O@.o@Oo@OOO@OO+OOO+O++o@O@OO+o+@oo@OO@+++#++#@@@@+$#+$#%@#$@#%@#%$$%%$%&$$&$%%%$&%$&%&$%%$$=$$%$$&$$%=$$&$$$%$%%&$$%$$&#$%$$%$$$%$$$$##sppe+##$@@#++$O+#+O@+O+@+O+OOO+o@+o@+@oO+.O@.+9e4#Oo+@OO+OOO+",
"OO+@++OOO+O2uiipw2++O++OO@O@+O+o@@++OO+++OO+#@#@@#@##@#%#%$#$#%%%$%$%%%$$%*&*&&*&&&%&*%=&&&%==&&&%&&&%%%=*=&&*&&&%%&%%$&=%%%%%&%$$%&%&%&%$$$$NNNx$#$@$%###@@@++++#+#++@O++OO@O@+OOo@@+OOO+9t2.O+O+O+++++OO",
"@.@Oo#OO@2bNMMMMMMNzo+o++OO@O+@.@Oo#+o@O@#+@#@@@$@@%@$%#$%$%%NNNx=&$*%*=*&=*&&=&&-&=-&==&=-&-&&;=&-==-&===&&=&*=&NNNMMMNMNMMMNx==%&NNNx&$%*$%Nnmx$%%@&$@&$@$#$$@@#@+O@O+@o+@OO+O@@.@oo#O+7q>+oo+Ooo+.O@o+@",
"O@O.@O.@0nnnnnnnnnnM+OO@+o++O@O#o.#Oo#+O#@+#@#@$#$%$$&&$%&&*%Mnnl*%=*&=**;===;==;--;;=-;;;=>-=;-=;==>==>---;---==Mnnnnnbnnnnnnx-=&;Mnnl**=&%*Mnnl%*$=$#*%#&#@%@@%#@@#++@O+@+o++O@o#o.@+o494+o.++oO+OO@OO@+",
"#.O#oO@2MbbnxptjcnnmoO#Oo#OO@O#o+@O@#o+$@@###%$$%=%%=*%=&***-Mnnl-;*=>--;;;>:;;,;;,:;,;;:;>-;,;;>-;,-:>::>:;::;;;MbbnmmmmmMmmMx--;-mnnx=;=*-=mbnl&&=%&-%&=$$*$$%##%#@@$+O$+O#OOOO#.O#oO>24:%&&&%@+o+#OO#+O",
"O.#+O+olbbneo.O..;rxoO@o#OOOO+oo@+o@+@$@+$##%#$%%%%*=%;==*===lxls;-;>-->:;>;::,>:,,:<,,,,,,><>>,,>1>>,>>>:>>,:;:>nvbm;-;;-;;;>;-:;;xllf;-=;-=nbbj===&-=*=&&;&$*$#%#@@$@+@#O#OO+O+Oo#Oo+2<<79977tooo+Oo++o@",
"O#oo+.*bccj.O+ oo@oo@+.@oOO@OOO@o+@++#@@%#$*#%&==%--%;---;;-;;-->-:,:><>,2>,,1<>11,2<<111<12<,1<<2,<2,<2,<12<:<,;nccn;>;;:;;,::,>:,;;;,>->;=;ncbl-=;;==;=*;*&=%&=#$%%$+$$o#++OOOO++ooOo<3<<<<<<3oO@+o@@.@O",
"@Oo#O.2bxctoOoo+OoOoOOo@+@OOOO@Oo#%&#@@$#$&%%====--;;;;3<;:;>:;,>:<>>2,<2<<22<12721223322242242131721122<42122<<,bxxb,;;,>><,,1,><,>1<,>>>;>>bxxj;:::;>:->-=;<*=&%&&$$#@@+#@#++=$+Oo#O.@O.@..+oo@@OOO+O+@+",
"OO+oO+<clxjO..+.oOOOOO@o+ohghi+%sxbcbjq$$&%%;&=jjjs;4fbbn9:>>ljjf1<<212ljlg22ulbbblt43444444426fxbbblt2gjll422212blxb>,,>,1<<3<12<<ljjf<<,,,:bxxj;>>>,::<<pxbbcxu>&&%%$##$O%txbbbblg>o+Oo@OO@..@oOO++O+@o+",
"O#+ OO#cllcp.+..o@oO#+O@oOcxzh#jxlllllcf=&%;*=-bxxl4xxjlcq<,,bxxj113226blxj2gclljlxcp44747474qcxllllxcjlxxb633421cklc,<<>1123224213bxxj1<2<<,bllj,,,<<:<7xxlllllxl2&=%$&$@,lxljxljjxqOOo+O #O.@.oO@OO@++@O",
"@.O#Oo+sljjxf%.+OooOoooOo@cjkggllxxxljjlp%;&;>>cjjjlllxxbq<<2xjjg242243cjllgxjxxxljjcq477474exljlclxxxcxjjc434222cjjc<,<22243343342cjlj13<<11cjjg,<2<229xllxxgcxklj=&&&$##gljxxjjcxxeOO+.O+.O+ O@+Oo++OO+O",
"O+OoO.O-ljgjljeoooOOOoo@oOxhjhcxf7<2fljjx2*;;:;xjjjcxgeqt6142cjjg344346xjjjxllteejlgls977978ljgxj9247sljjjx474322xhhc<2123347346444xjjg3321<3xjjj<22222jjjlq>>;sljxe=&&$#;xgjf*o@o;9>OoO@..+.O+O+OOO+OoO@o",
"#oO#..@.-jjgggjj3+o+O+#.O+xggjk2O@O+$sjfjp-;;,,xgggxt112,2424xggg344444xggglg7464qlgjj7qq9qpjgjjq77777ejggx999978xfgkhggggghje87774xgjg324242xgjg22422yjglt<>>::hhjg-&&%$9lgj>@+o+oO+..#.O.O.+OO@+@o@+O$o+",
"+.@OO+.oO*fjgffgjp$o.+.OO.lgfh;.+++$+2lfgj;;,>,lffjp<12224334lfgg777878lffjg747477lfgg9999qggfju4777777gfgl797774lfffgggggggluq9999lfgg877443lffg23324fggl2<<>>>tjfl;-&%&7jfjeOOoO.+OO# O+++++O#O+O@oO@oO@",
"O@..+Oooo o>94;;;3q%+.O+Oow;,7.O.o+@@$q::q:>>>>e;>91223274676q:>9878979q::94444444q;<998999q::q767447449>>q777774w;;<6766666r98q999q;,9777777q:,947463q:1e<<><>>44;9>-=&$%9>>74@+.O..OOOOO @.o@+Oo+O++OO@+",
"+oOO o+.OOoo#2q4,>3w&.+.OOe,17OOo+O+$#71>q<::,<e<192446877978e,2q797787e,<q4443474e,2q88979q>1w47477467q<<e749747e>:qq8999q0q9q9998e<1q799777e,2q67778q>4eteeqqe93>91*-*$$39,,4q7*.o+ .@.+@++#o.O+@o#@o#o+",
"+.$OO+oOoo.Oo.*992279+..+.t248O.@++$@$q42e2;,,<t24e4468777977t24e887777t34q4434344t24e77779e26e76664474e23t777474t12t32467989099997t24e777777t24e76649e12<222222323q4;&&%$+8e4226e9*OO@oOO+.++.@O+o@OO@oo@",
"O#oo+OO+o +o.oo+8q77u*.+O.u78qo+OO@@#&q94t<>><2u78t7788799797u79t778747u68t4444447u49r76779t49t46764764t97u774774u67i3444789q980978u79t747777u79t66678t47tpupupuuuus9-=*%$$@;ty976qt:+OO@+ #O.++OO+OO@+O@+",
"++O+oo+.o#oo+.oOOt99t<OO +p9qw+OO@++%#eq9u2;>36p9qy4777979979p9qy484774p9qt6444444p8qt47769u9qu47447476tq9p747747p99p33377709909997p9qt777477p9qt76648u9qu2222243:>>;=-&$$$O#O-9pe9qu$.@.O#O+$.O@@+o@@.@+o",
"O.#Oo$oo# O+.oO..4q7e3O +.p79qoo@++%@$p77p->,34p78t777989q977p79t876747p79t4446447p7qt47644u87u84674774t79p474474u77i33647099q89979u79t777774p79t64444u79t22<2223>:;;;=%&%+$+O+o$q97e4#oO# @#.@#+OO#Oo@@o@",
"O#oOOoO+ @ooOoo..494q<.o.ou47eO+O+@@#>e49e;>>>2u77e7799999997u77e677676u48r4674474t49e74474t94qq664747ee47u747744u44u4447799q9q9887u47r479477u47t46443e94t722121>::;>-*=%@#OO+OoO-e4q8OOO.@OO@+OoO@o+#Oo+o",
"OOOO++&++@o.o.oOOq44e%Oo.+t47t$OO+@#$q74e2-;>>,t34e7999q9q997t24e774774t34e7757777y27e466449e34w94679etq24t447447t22t44779qq9qq9987u44e774777y34e464449e37e22<>>>>>:=--*%%$@#OOoo+w204OOo@@OoOO@@@.@@o+@+O",
"+O+oO+2u4=+Oooo@49<4qOoo+.e2<7e>OO+#29<4e-=;>>>t12q47999qq999t13w776767r13w7768748t14q664644e7<3qeeeq7pt24e474477t22e77799qqqqqq987t<3w864774t23w466443e727q<>,:>><7>-*$%4q:OOOoO48<q;OOO@OO@OOO@Oo@oo@+O@",
"+#OO+.<949e72<2q4<4e=oooo.e<<99997497<2q,*=;;;>e<2q2347477787e,1q778477e,1q7787887e>2q7647477q4,>,<<19tt<<q774774e>>e797999qeq9q989e,2q477777e,2q4443212e4,4qq77qqqt<-**%299e73397<4e@ O@..@Oo@OO+@+++OOO+",
"Oo+@O+2q<::<242><4q;ooo..Oe:<9q7<22>>2q<&**-;;>e:<92244747444q>,9444477q>,q7978888e;<q77667477q07447q749><9747777q;>q779qqqqeqqq988e><9774664q>,9222<21<1q7<><22<,2e,**%%29,><22,:7q%OOOOOOOOOO@+@O++++@OO",
"+o#O.#=79944324792@.oo.oO.q;>7@<q977q7;$&**=;;;pqqq2224244443sqeq433423pqee4647448tqww67667474377777442q:<9474777uqqu77989eqqqq9976pqeq322323uqww122<1<,<,3997677994-*%$%&4797678q2$..@O.@O@@OO@OOO+oO@o+@",
"O#. @O.+o#=::>>%+o..+..Oo.9=;4o+O%=&##@@&$&==-;>>>,,<2223333131122<32233243434434434423434232<21<2<,<<17-2422222242242744897q7774443333223223212112<2,><>;>;;<,>,;****%$###+#%=&%O+  @O.@..@OO@+OO@OO@OO@+",
"#.O#oO+.o+ooOoo+o.o@o.@o.+9&-2O.O+OO#+@&#&***;;=;>>>211212112<12<22<<31<2224333433422422323122<<<>:<:>2<&42<222242242727867974944442421231121<2<<<<1>,<>:>-;;-=--*=*%%*$#$@O+OOoo+ OO.O@.O#.O@OO#+OO@OO#+o",
"+o@+o@+o@o.Oo.O.ooOooOO.+o7%*<..OOO+++$@@&&&*&*=;-;:,:1<<<<<<<<<<11<31<21<22123223213222221132,<,>>::22&*4><<2<221322234447448434322<<<21<11,<<<,<,>>,>::;-;=*=*%*%%$%$###O+OOooO. +O.+OO@O.@OoOoOo++O++o@",
"+@oo+.o@oo+oo@.oo+o.+O.+oO4#&<oOoOOO+$+@$#$=$&*-=*;:=,:>><<>><>>,,,1,,1,12,<122<22<3<2<211112742<2<<4<$#22><<,22,212223224347424123><<2<,1<>1,,>,,>>>;;:--;=*=&&=$$$%$+$#O@+OOOOoO+o.+.o@OO@O+$.O+@+.@@.@+",
"@oo@+.@oo@oo+o.++oOOOOoOOO4@$,+.o+OO@++$@#&$$**&*===;:;>::::>>;<>:<,><,><,,11<<<<1<1<2<<<<1,2*@%=:;*%@&<2>>>,,><<<<1<2113214223<<2,,2<,,,>>>,>>>:;:>;;:;*;*&=&&&%$%%#$$+@++++OOOO+..+O.#Oo@OO@OO@@O++O+O@+",
"+@@.o@+o@oO+o.@.oOOOoO@.Oo9<22ooOoO+++$@#$@#&$&&&**=;*==;--;;;;;;:;;,;>,:><>,,,,,,<>,,,,>,>,33<:==*=:<<:;;;>>,,,<,<>,<<<,<2<,3<,<,><;:>>>:>>;:;;;-;;-;==-=&-&%&$$%$$##$++#O+OOo.OOO+oO+OO$OO@OO@O++++O+@O+",
"o@@.++o@O.#oo@.oO@OO@OO+oo$##@o+O.O+O@+O%#+&#$$&%%***=*===--=;=&-;->;->;;>;;:,::,>>>:>>>>:;>;=;;;:;;;-&-*=-;::>>>>>>>:<,;>,:<>:<:;,;;;>;;:;;;---;-;=-=%**%=%#=$#$#@#$@+$++@OO+OOOO@O O+o#OO$OO@OOO#OO#++@O",
"@.+@o+@oo@oo@.o@+oo+OoOOo+ooo.O.o@OO@O+@+@$+@&$$$%%$%&%=&**&=&=;==;==---;=-::-;;;-;;;:-;-=;*--=*=&&*&&=&*--==;--;;->-;-;,;:>;;:;;:=-:;==--*=-*-*=&%=%&-&&&$$%#$$+#$$++#+O++O+oOO.+.+#O+@OO+OO@oO#@OO++o++o",
"@.@oO@+o@++@+o@.OO+OOOooOoO++.O.+oo@OO#+@#@+$+#@$#$$#$&%%*&%*$**&-&&-&=-=*;&==-=-===---;-*-&=*&=&%*%&&&%=%**===-==-=-;&;--:-=:--;-*;&**=***&**%*=&%&$&$%*$#&#$$#+$O++#O++.O++O++o+ +OO#OO@O@@@O@.OO+OO+oO+",
"O@o+#..@oo@O+@o+++OO+O+OOo+oo@o@oO#.O@++#+@#+@####$#$$##&#%*%*$%=#$=%%=&&=&*****=*=*&&-%*-&=%%*#$&$%&$%&%&&***=&=&=&-*-&*;&%;&&-**=&****&*%&%$$*$$=$%$$&++%@@$@#$+++#+++O+OOo@.+@O#oO$  @OO@OO@O++++++O+OO",
"#OO@Oo#oo@Oo@+O@+++@o.@o.@.O+.@ooOOo#oO@OO@@+#@@@#@+%@+$@$%@&$#%$$&$$&%%&&&=%&%=&$=%$=$&*$=%$&$$&#$%$$%$%&%&%*%$=%$=%-%%*%&=%&=%$*%%*%%%*$#*$#%#$$#%#@$#+%++$#O$+O$+++#O.$o.#oO#o#OOOOO@OO@OO@OO@++O@O.#oo",
"++#o@@.+@+++oo+++o@o++o+@o+O++OO#O@@.+++++OO@+++@+@@+@$@#@$###&@$%@$$$$$$$%$$$%$$%$%=$&$%%$$&$%%@$$@#$#$$$$$%$$%$%=%%$%=$&&@%%%$$#$*$$$$#$$#$%#$$$$##%+#$o##+++OO#OOo#oO+o+$o+O++OO$O@@.++OOOOO@OOO@o++O+#",
"O+oO@++@oo@oO@O++o+OO+@ooO+oO+O+oo+o@@oO@oO@O++O++++@++@#+@@@#@@$+$$@@$@@%@$$#$$$$%@##$#$$#$@@$@$#@@$@@$#$$@$$$$%@@$%$$@$%@%%$@%##$#$$###$#$+#+$O#$+#O+#O##OO#OO#O++OOO+O+ooo#o++O+OO+O@@OO@OO@O+@oO+O+@oO",
"@++@o.@.+o@+@@O@+O+O++@oo#O+@o@O+@O.@oOO@++@+@+O++++@OO#+@#+#@@@OO$O@@$@#$@$$@@@##$@@%##$@%@#$+O$+@@#@@$@$$@#@$@$@@%$%@$$@O%+@@$#$$#$#O#+++#++$++#O$++#O.$oOO++++O#+OO+O+#Oo$OO#O#OO@O @.OO@O@@O@+O++O+@oO",
"O.#+o@o+@+O@+o@+++@o++o@@@.O+.o.#+o+OO@+O@+o@+++@o+@++@@o+@.+o#@O@@+#@+#@O#@@@$O@#+#$@O@#O+O$@+@++#@@@@+#@@@$+@#@$$@O@O$@+@@@#@@#+O###+$O##O###.+#.O.$Oo+OO#OO#OO+++O#o++O+#+.O+.O.$OO@OO@OO@OO@++O@o+@O+@"
};
