/* XPM */
static char *logo__[] = {
/* columns rows colors chars-per-pixel */
"202 53 58 1",
"  c #090907",
". c #0E0E0C",
"X c #11110F",
"o c #151513",
"O c #171813",
"+ c #181816",
"@ c #1C1C1A",
"# c #20201E",
"$ c #242422",
"% c #282826",
"& c #2D2D2B",
"* c #31312F",
"= c #343432",
"- c #383836",
"; c #3C3C3A",
": c #40403E",
"> c #444442",
", c #484846",
"< c #4D4D4B",
"1 c #50504E",
"2 c #545452",
"3 c #585856",
"4 c #5C5C5B",
"5 c #61615F",
"6 c #646464",
"7 c #696967",
"8 c #6A6A6A",
"9 c #71716F",
"0 c #747474",
"q c #787876",
"w c #7C7C7C",
"e c #80807E",
"r c #828282",
"t c #8C8C8C",
"y c #8E8E90",
"u c #949494",
"i c #979799",
"p c #9D9D9D",
"a c #A3A3A3",
"s c #AAAAAA",
"d c #B3B3B3",
"f c #BCBCBD",
"g c #BEBEC0",
"h c #C3C3C3",
"j c #C9C9C7",
"k c #C6C6C8",
"l c #CACACA",
"z c #CFCFD1",
"x c #D4D4D4",
"c c #DCDCDD",
"v c #DFDFE1",
"b c #E0DFE4",
"n c #E3E3E5",
"m c #E8E8E6",
"M c #E7E7E9",
"N c #EAEAEC",
"B c #EEEEF0",
"V c #F1F1F3",
/* pixels */
"o@oO+Xo@.o@X+++++++@@oo#o@@+o#o@X++X+@XX@oo+o+ooo+oXo@X+#oX#o@oo+X+@.o@X++o+oo+ooXX@o+#oX#o@X++X+@.o@X++o+ooO+oXX#X+#+#O+@o+#oo@oO+o+oo+++XX@o+#OX#o@X++X+@.o@Xo+o+oooo+XX@X+@+X@o@Xo@X+#X+#o+@++oo+ooXX@X",
"@oO@Xo#ooooo+++##$@%$$&#$$o$#+#o+@XX#ooooo+oo@+@X@+o$X++ +@o@Xo@Xo#ooooo+oo@+@X@++$X++ @@o#X+@XX#ooooo+oo@+@X+++%+#$O&#$&##%@@++o+oo@++o@@@%+@@.@@o@oo@XX#ooooo+oo@+@X@+o$X+@ @@o#o+#o+%#####$@@#@@X@++$oo",
"+.@O+#.o@++++@%$%&=*&-&==&&&$#@o@++#Xo@+@++o#++o@XX@X++Xo+oo+.@o+#.o@+++++#++o@oX@oo+Xo++o+X@o+#Xo@++@+o#++o@Xo#+#&$&=&-==-%%&$#@+O@++o@o+%#$&@+@oO+.@++#Xo@+++++#++o@Xo@X++Xo+oO+X@+#&#&====&%&$@+@Xo@Xo@",
"o@X.+oo+o.@oo$%*=:>>,>>,,;>=&&@@X.+oooo.@oX@ooX+++@oo@+X#oX#o@XX+oooo.@oX@ooX++++oo@+X#XX@X@XX+oo+o.@XX@oo.+++@@#*==,:,::>:--&@$oo@OoX++#%%&=&#&+X@o@XX+oo+o.@oX@ooX++++oo@+X#oX@o@o+%&=;::>;;;*$@#+++oo@+",
"+Xo+.X@o@@+@%$-sggkgglflhhd2:=%+++.o#X@@o+#oXoo@X#@X#X+@Xo+++oo+.X@X@@o+@oXoo@X#@X#X+@Xo+++Xo+.X#X+#++#oXo+@X##+*hggkhjhhlhfa;=#@$oooO@o%1gda-=#@@o+Xo+.X#X+@++#XXoo@X#@X#X+@Xo+O+o@&=ufkgghhs4;*%$o#@X#X+",
"+.#oo@oOooX@$%gNMBnNNnBNnNBl<-&+$+X@X+ooX++X@o@X+oo@XX@oXo+Xo.#oo@o+++o@@X#o+X+oo@XX@oXo+Xo.#+o#X+ooX++X@o+o+o+$%BnNBMBvMBvBh-*#@@o@o+o#$5vBk>=$#+o+X@+o@o+o+X++X#o+X+o+@XX@oXo+XOX%&dbNNNMBMMb4;*##oo@XX@",
"o#oX@oo@+.#@#5NNBMNBMMNbMBnNw>=&+X@o+@+.#oX+++o++o@+o@+X@oooo#oX@o+#@o%+o@oooo+o+@o@+.@oooo#oo+oo#+.#o.++oo++o@%&bMVnNvNBbNNf;%&#O$@@+@#$6MNg<==#+oo#oX+o+#+.@oX++oo+oo++o@+.@ooOo#$>nMMvMVvNBMu>=%@++@o@+",
"@oo@oo@Xo#o#*5Nbvtrew00wrbNNw,;$@@oo@Xo#o+#Xo+@+X@+.++X#o+@o++o@oo#+#&$$%o+@#+X@+.++.#o+@o@+o+oX@Xo#o+#Xo@@oX@##-MVvatrwq0984*=$$&@$%$@+*6BMh<,*#@o@oo@oo@Xo#o+#Xo+#+X@+X++X#oo@+@@%5NBa3442wvBp<:&@@+X++X",
"XX#oo$Xo#.+$$8vNN751>>:>2NNnr<=$$oo$Xo#.+@X+#ooo#+X#@.@oo@+XoX@oo$+#=%**$$$ooo#oX#@X@oo#+XoX#Xo$Xo#.+@X+#ooo#o+&;BnNt421;;:*&=@%&%*=&$#&&6bnl2>*&+XoX#oo#XX#.+@X+#ooo#oo#+X@oo#+Xo+*5Bvp22,<0BMp<;%%+X#@X@",
"o@oooXo+X@o@&8NBB62,:&%;>NMMr<;&@+oXo+X@oo@++Xo@Xo#oX@Xo@+X@o+ooOO#<gdp=*$@oo@X+#XX+Xo++X+o@ooOX++X@oo++ooo@X+$$*MBNr3<;*%$%%@%#1dfp=&*#&7NBh1>=$++o@oooX++X@oo+++Xo#X+#oX+X+++X@o##4MBi,;>:0mMa<;*@@#XX+X",
"o+o++++X@#o@%6Nbn41:%$%*;nNnr<;&@++++X@#oXoX++@X+@oo@+o#o@++o+o++@$4nvg;*$#@+X+@o+@+o#o+++o+o++++.+#oXoo+@@.+@+%;MNvr2:*%###o#%#4NNg;=$%=6Mnh2,=%@+ooo++++X@#oXoX+@+X+@Xo@+o#o@++o@#4NMu=-;;8NNp<;$$#X+@+o",
"++oXo@+o@o+#%6NMN3<=#$#$;NMMr<;&@oo@+o@X@@o+++oX@oX@+o@oo+o@++ooo#%4vBg:*%#@oo@o.@+o#o++o@++oXo@+o#X@+ooo+oX@oo&-NbBr1;&@+@+o#+%4NNf:=$&&6mMk3>=$+++++Xo@+o@X@@oo+@oX@o.@+o#X++o@++@#%*=&=&;wBNt,-$#o.@+o#",
"+@oo+Xo@XX@@%7NNN5<-&@@$=NnNw<;&@++Xo#XX@oo@ooo@oo++oo+X@oo++@oo@o#4VBg-&&@o+#oo++oo+X@+X@+@oo+Xo#XX+oo@oo+#oo#$=NMBr<:%@+Xo#Xo%4Nng==&$&7NNk2>=$o@+@X++Xo@.X@oX@oo+#oo+ooo+X@+X++#+@$#$*%=4nNc3;=&@o@ooo+",
"+X@@+++oo+o@$6nMv41:&#@#=nNn0>=$#@o+ooo+oXXo@+@+++o++oo@o@oo+X@@++@=452&$$#+@o+@+++oo@o@oo+X@@++oo++ooX+@+@o++@%-BNbr<;*$++ooo@@*444=&$$&6MMk2,*%@ooX@@++o+o+ooXo@+@o+++++oo@o@ooOX@#@$$%*<xNNt,;&#@+o++oo",
"+X@oX#+X@X+#$6nMB42:&%O$&BMn9;=@$oo$@o@+@#++#+oo@Xo@X+@++@+@@o#+o$#@&%&*$@#+oo+oo@o@@+@@+++X@oX$+o#+@#++@++o@o+&=MMNe1-*@o#+X@+#%$&*&#@$%6nBh2;=$+@@X@+o$@o#+@@++@ooo@X+#X@#o+@+@@.@Oo&$&;lMns,:*$++Xo@X++",
"X#X.@+X@oX@+#>NNNa3,;%#$&yuu1=$&oX$@@$@@%##&$#@@++@+@$#@$#$%#&@o#@+$##&$@$@++#@#$##%$#$$#$+$XX@Oo$@@%##%$###@+#%=nMBr<:%o#oX@oX#@#&%$#$#&7MNh2>=%+@+%@+%$@%#@%@+#++o@+@$##%$#$$#$O$o.$@$-sBnd<>=%@@+o@oo@+",
"#.o#oo#XX$X+$&pvnBy3:**$#&&&&$%+@%#%*%&-&*-=*=&#@$@@&%&=&**=-&&*#@$+#*$%%#@$$$&*&&==*-*&&$&O@#O@%#%-&*=*&-*$$%#$;MNbr1=&%oO@XX$+@&$%&$@$=6Nvk2<*$@@%#&-&==&&-&%%#@$@@#*%&-=*-**&$&O@$@$-iNvl2<;&&#++@oo#+o",
"o.#+X+oo#o.#@$>lBNv0<:=$%#$##$@+%$&--->;;>:>:;*%%#@%**:;:::>>;:=%%$$=*&*$@@@#&=;;:>;,>>:;=$@$@@&&=>::,:;:;-=*$#&;BbNr1;=$+@++$O+%&&=%$#%&6Mnl2>=$#$%&;;;>::,;=;&$$++#&*-:>;,>::;=&#%#$=rNvx62>-&#@o@+o+@X@",
"++oX+XX#Xo#X+&$,vvMM6<-=$#@#@+@$#0fhp0ppgzNvvr>;&@&0hfirpfhMnct:-%%2fgi=&=@$0dgi0isflNNcr>-&@@$&9hNNkkpyphhr-%**=vNMr3<-&&#$%+@%<fdp=&&$%7nVg2>=%%%8dhkghhfhhs6;-##$*6dgglgkghhr:-*$$=4nbM052,>&%$%@X@@.@o",
"#oX#+X#oX#oX#@#=5NMNz5,;*%@@++#@$tNBvNBvNBvNBv4;*&&yMnMnMMNMbNN4:*-6Nbh:=&$=yNNNNMNnNnMNm4>*$&&wnNNnNNmNNnnp>=&*=mMnt52>>=&=%#&$4mNh,;&%&7MNh2,=%%,vNBvNBvNBvBv1;&&&,MMNMNnMnNMMt,=&=1mbnr8632>-;&#@+++o@+",
"o++Xo@oo$o+#oo$$=rNMNd2>-$#+oo+#&uNnNNvNNvBNbBw>-**unNMNMNBNMMmw,;-8vNh<;&=&yMMmNMnBmBMNNw,=*$-cNNckhgcNnNNa<;**:BMBt743,>>;==%&6NBf<;&&*7Mvk2:=&%yNNxkkghkgvNv0:;&&yMMNNvBMBMNBh<:;:lnNchlkhlhf4*%#@o+@X+",
"o#+ o@o#oX$oo@+@$;pBvMa1>=&#@++%*uNms64<2<2hNNw<;*-uMns64222jbMw<>-8NBf<;-&&uvNs632<<2kMNe,;*%qnNcq43<,1aNNp1;-*;nNNnNvMVNMN>*%;7Bbk<;;&&8Nnh2>=&=yBva431,<1kcNw<=**uNMa64212wMMl1,;uNMNvMBcMNnN7**@+@++@o",
"+.+#oo#oo+Xo@Xo$$%=dNBNt<>*$@o@+&uNNa41,::1lBve<;--uMMs51<,,hBMw,:>8Nml2,&&;uNNa42,::<kNNr<-=-uNns52,:::pbna1:=&-MNnBMBNbNNv:**=7bBl2,=$*7BNh2,=&=unVs4<>:;,hNNw,-;-uNMs43<><0MNl2;;tNMbNNmNNnVN8=$@@+X++o",
"o@oo+Xo@.o@o++o@+#&>lBBv0<>*#$+%&uMNa3>;-*:gMMe<;=-uBna3<:=>hnNq>;;8BNh1,=&=uNNa2,;==>fMNe<:==uVMa2<:**;pMBa1:=*=nBMvNnBNMBN:&&-7NMh2>=&*6BBh1>-&&uNna3<-=-;hbBe<;==uNMa4<,;;8MBf<:====:,>,,>>:-=%$#++XX@X",
"#Xo@Xo#XoXoo+oo@+$#&2vvBv6,:*#%#&uBBp2:*%%-hNnw<;--ucNa2;;=*fNN0;=:8NBk2>=&-unBa2>;$&-lnnw<;=;uNba2:=$&*inna<>=*>NNMy8421:;>=%$*7MNk2,=%=7Ncl2>&==uvBa4>==*;hNBw<;=-yBna43:--5nMg,=&*$%-*=*===***%#o@+o$X+",
"+X#o+#Xo@++@++$+++$$&5BNMx4,-%$@=uMvs<>*%&=fcNw<:*-uBNa<;*$%igd4=-*8bNh2>===uNna<,&$&&hmNw<;-=ubBa2:&%$&uNMa2;===NnBt42<;--%$&$=7MNg2,==%6nBh2:=*=uMBa4<>*->gMne<>=*wnBnr2,;*<yuw=%&$#%@$&%%%%$&#@+#oo@Xo@",
"X#..+oo+o.@oo#@++$#$%*rvMVd1;-$&&uMNa<;%&#*fNNw<:--uNna<>&#%$=%&&&*7NVh2>-==uMMa2;&&%*fNBw,:==uNNa1-=##=uNNa<:-*-MMBr2<=%%$#$@@*7Bnk<;=&*6NNh2:;&*uBns42<>><lnBw<;&$:xMnNi2<;:=&=%%@o@++@+o#+o#@+o+o+@oo@+",
"+Xo+.X#X@@++$+@$%$@%%$;aMvBp1-*%=uVNp<>=$%-hBNw<;;;uvBa1;&%#$@$$@#=7nvk2,*&=uMBp2;=@%=hNMw<;=;uNba2>&$&&uNMa<>-&;BMnr2:&$oo$o@$&6nNl2>-$=8Bvl2,*&=uMNftrw00wlMMw>=%$&;hnBbd2<;-=&$@@@.X@X@@++#oXo+@X#+X#X+",
"o.#+X#X+ooX@#@**=&&$#$%-dBVv2;=%;uNba1;*$%=hbNw,:=-uBNa<;&$o@o%@+%%8NNl2>&==uNna<>%$&*hNMw<=;-unBa1:&$$&uNMa2:===BnNe<-=#o@oOO@%7nBg1,=&&6nBl2>*&=iMBvNNbBMNNBMq;-$$#&>smBNl5,:-%%+$+o@o+ooX++X#o+o+oo@XX@",
"o#oX@oo#+.#++1ggg;*$$#$=2VbNw,--=umNa2:$&$&fmNw<;=;uNna<>&#+o#oX@#&8MVg1;;*=uMMa2;&&%&fNNw<>==uNNp2==$@*uNNa1;==-nMVr<:%+@o+@+o*6BMk2>=&&8mNh2;;&=uBnNBnNNbMVnl<;&#@#$&;tNnMM0<:*%%+X@++@+.#o.+oooo+o++o@+",
"@oo@oX@Xo#o@*5Nvv,==$o$&-vNNw<:==uNNa<;-$%;hNne<;--unma2:&$O@oo@o@*6Nvk2<=&=uMBa2;&%#-gNnw<;=;uBva1,&$&&unba<:-&;MVvr1;%$oX@oo%%7vBk2,=$=7Bnk2<=&;unMfrrw099091:&$$$@@&=-qcBvnt<:=%@@oX@XO$o+$Xo@@+X@+.++.",
"oX#oX$oX$.+$#6vNN1,*#$#$;NNvr,;&:uNcs<>%$&*hbNw,>==unBa1;=$ooX#oo%$6vBk3:===uNva<>=@&=hvMw<-;=uvBa2-*&@&uNNa2;*-;VnNe<-=@o$XX$o&7BMf2>==&6vMl2;===uBBa631;;>=;:&&&@@#&&&;:6hNNvs,-%&+o$Xo#.+#X+#ooo#oo#@X@",
"o@oo+X++X@o+&8NBN4>=&+o&*NMMw2;-=iMNa2;=#$=gNBw<;=;iBMa1>&@@o+ooO@%7Bnl1,=**unBa2;&%@=fMBw<:==uBNp<>&#%*uBBp<:;&=MBNe<;%@+X++X$%6MMk2:;%&7NBh2>-**uNns3<;=*&-*==&$@@&%*;=*;<hnNNy>;$#+oo+X@oo++ooo@o+#oX+X",
"ooo++++X@#o+%6NvM2,;$@$%=vBvw1;==iMMp1:-#$=hNne,:-=unMa2;=$@o+o++#&6nbj1>**-uBmp<;=$$;hnMw,:=-uNNa2>&@$&unna2>==;NNve<;&#+++X@%%6NBh2,&*=6Nnh2,===uNMa2,-&#&==**%$%&0dfw--==,dnMh<;&#+++X+#oXooo+@X+@X+@+o",
"+ooXo++o#X@$$8NbN4<-$$$%;BMMr1>==iNva1,&&*=gNnw,:**uMNp<:=@@+o+X+#&7nNh2:=*=uBba<>&$&=gMNw<;==ubMa3:-&$*uMNa2;&=;NvNr1;%@o@+o#+*7NMk2>&*&6nMk2>=*=uMNa1:=%#*iff4=&&&ynNp>;=--9MNh2:*#+@+X#X@+o+++oX@XX@+o@",
"+#oo+Xo#.X@@%6NBM62>=&%=,NMNr2;;=iMVa3>=-*;gNBw<;=-uNNa<>&@@+@oo@+%7VNh1:;&=ubMa2;&$&&fNBw<:*=uBNp3,;*&;iNNa1;==-NMBe1:%@@Xo@X+*6Bnk2>;&&7NNj2:-&&uMna2,*&=*hnN0:=&*yNNp<>-=;0MBh2>*#@Xo@XX@oo@oo+#o++ooo+",
"+X+#o+ooo+o+$6MMv642>;->1vNvr1;*-uMMa42,:;,lvNw,-==uMNa2;=#OOX@@+#%7MNh2:===uNMa2;*$$-gnNw<;--uMBs42,;;,pNva2>==-NNne<-*$++oo+#&6BNh2>=&*6MMk1,=*=uNBa41>--:gNB0>;*=yMMa31>:,qbMj2:=%++ooo+ooXo@+@o+@o++oo",
"+.@oX#+X#o+$%6vNB8631<,25BMMr,;*-iBvs641<2tNnM4;=%=uBNp,;&$@+X@oo%%6mNh2:==*uNMa<:%$%*gMNq<==&9vNnw321<2pNBa2;*==NbBe<-&@o#oX@@&6NNg1:*&%6MBh2;=*&uMBa431,>1kMnw>;**uMBs63211wMNk2;=#o#+o@o+@oo@ooX+Xo@X+@",
"X$X.#+.@XX#+$6NNNvNNvNNvbBMNw,=-*ivMvklzhzBvMs<;&&=uNnp,;&@@X#X.#@#6NBg,;-&&yMNp<-%%$&gNN0::%$=xBbNlhkkgxNBa2:=*=nMBq>:$o@+X@oo&5Bbh<;=%%6NNg<;=&&tNblsapapacnBq,=&*uNNxljghjzMNh<>%+#oX@oX@Xo@+oo+oo@oo++",
"#.o#Xo#.X$X+$;vvMNNvNNvMBvNv3;-$=uBNvVBvBNnMz3>&%&%yvMi,=%@+#.+@X@&4Bbh>;*$=yNNi>=*$#*fNN0:&%&%4cBBvNNnNNvns2>*&-MBv0>*$$oo@Xo$#5bNh<;&$*5Nvh>;&%$5bVMcNNbBBbNb3;***5MvNNvMBbNNMa,*%%o+@XX#X+++o#@o+#oo#+o",
"oX@+X@oo$X.#@$3xBNMMNMMBvMv8>=&$=uBnNMcBBnxp<;&$$$$tnBu-&$@+oX@oo#$4cmh:*$%$tNMu=*%+$$fmN7=%&##*1sxBVvNBMBBs2:*&*BvN8-%%@o+oo$++4NBg-&$%$4MMh:*%##&innMNmMNvNce:*&##&ycBMMBbMMMd1-%%@o@oo$oX@oo+XoX+oo++X@",
"+@oX+XX#oX#o+&$=;,,><,><,,;;=%$%&uMBs842<>>,=&$&@+$&$-*&%$@o+@oo+o@&%*-&%&+#$==&*&O$@$$*==&%@@$$*::>,,13aNMa2;=&#**=**%@o+Xo#o+$#%;%&%%#+%&&-*%####*;-;>:>,>:>-*=+@@%&*>>;<>>,>;=*%@++Xo#Xo@oo#.oo#+X@@.#o",
"#oo#+X#oX#oX#+@&**===-----*&$$$$&uNBa41<;=;&$&$@++@#$&%%#@++@oo#+X$@#&$#%@+$%#%$$#@@@$$$$%%@+$$$--;:--:,pvva2:*$#$%&%%@+#+X#oo#+@%%$&%@@@#$$%%%@@@@%$&-=*-*=-&%&#@#$@$%&==--;==*%&@o#+X#oo@oo@oX@@o++o+o++",
"+o+Xo@oo$oo#oo$@$$%%$%&$$$$#@+#$=uNna31;&&@$$@@@+@+@$+#+@+ooo++Xo@++%@#$+o#+@@##@@#o@o@@@@@@#@$=-;>---=:iBNa2:&$$+#@#@@@Xo@oo#++#+@$+@+@@+#$@@o@oO@@#$##&%$&$$%@+#o+@@#$$&#%$$##@#@@Xo@oo#O+@Xo#o++++o+@o+",
"o#o.o+o#oX$+X#oo+$+@$#@$++#++++%*uNMa3>**@o#@OO#oo#+@@++@+++o@+ o@o#+o$+o#oo+#++#@+@O+@@++O$@+4MBv,:>==>pBNp1:=$@@++@o#+.o+o#+X$+o#+++#oo#+@@++@+++o#@X@@+$@o$@o#ooo#o+#@@#@@#@@+o#+.o+o#OX#Oo@ooo#oo#+++o",
"+Xo#oo#oo+oo#.o#@oo+oXo+o#oooX@+&uNNp<;*#+#Xo@@oo@+Xo+o@ooXX+.+#oo@oo+oo@.X#@oo@+XO+o@ooo.@.@&5MvN21,:>>pvna1:&@++o@o+Xo#oo@oX+o+#.X#@oo@ooo+o@oooX+.O#oo#oo+oo@.X#@oo@OXo+o@oooX+Xo#oo@oo+oo@Xo#@oo++X++o",
"@.+oo#oX#o+@+X#.oo+oo+Xo+oo#+X@+&uNvp<:&##+X#.oo+oo+Xo+o+@@X@.@oo#XX#o+@+o#Xoo+oo+Xo+Oo@@o@.$$4bBB5322<2pBNa<;&#Xo+o+@.+oo#oX#o+@+X#.oo+oo+Xo+o+@@X@.@oo#oX#o+#+X#.oo@oo+Xo+o+@+o+.@oX#oX@o+@+o@.oo+oo+Xo+",
"o#Xo#.X#Xo#o+@oo+++++o+oo.#Xo#+%$yvVp<-%$+O@oo+++++o+ooX@X+#+@oo#.X#Xo@+o@oo+++o+o+ooX@X+@o@o$4VBvBNvNNvBNNp,=%@@ooX@o#Xo#.X#Xo@o+@oo+++++o+ooX@X+#o#Xo#..#Xo@oO@oO+++o+o+ooX@X+#o#Xo#..#oo@o+@o++++++o+oo",
"#oX+oo#Xo#oX@+o#+oo@o.$X.#.o@X#@$yBNu;**@o@+o#+oo@o.#X.@Xo@X#oX+oo#Xo@oo@++@++o@o.#X.@Xo@X#oo#&jvBNnNNbNNnM5:=#o$X.@X#oX+oo#Xo@oo@o+@+o+@o.#X.@Xo@X#oo+oX#Xo@oo@+O@++o@oX#X.@X++X#oX+oo#Xo@oo@Oo@++o@oX#XX",
"o+$o+@.++oo+Xo+ooo@oo+X+#o++@++@&0dfw-&$@+oX@ooo@oo+o+#o@o@+oo#X@@.+@oo+Xo+ooo@Xo+o+#o++@+oo$@%<shghhhhkgd0:-%#+X+#o+o+#o@@.++o++Xo+ooo@X++o+#o+++++o#o+@.+++o+Xo+ooo@X++X+#o+o@+o+#o@@.++o++Xo+ooo@oo+o+#",
"o+oo+o+@Xo+oo#o++ooo+o@XXo@Xo++@@$****#@#oo@o++oooo+@XXo@X++o+oo+X+@Xo@Xo@o++o+oO+@XXo@X+@o+o+$$=;;;,;:,>:;*%#@+@XXo@o+oo+o+@Xo+oo@+++oo+oo@XXo@X++o+oo@o++oo@Xo@o++oo+o+@Xoo@oo+o+Xo@X@@Xo+oo@o++oo+oo@oX",
"#oo@X.@Xoo@o+@o@+o++o+@oX$o+@X#+@$@@&@@+@++@o@+o++o+@oX#o+@X#o+@o.@Xoo@++@+@+oo+o+@oo#o+@X#o+@++&$&&-===**&$$@++@Xo#o#o+@X.@Xoo@++@o@+o++o+@oX#o+@X#o+@XX@Xoo@++#o@+ooooo@oX#o+@o#o+@X.@Xoo@++@O@+oo+o+@Xo",
"o.$+o+oo#oo@oo++oo#o++o+@+Xo@.o.$@+#@+#++@oX@+o+@o++o+@@.o@.o.#+o+oo@+o@+X@++o@oO+o+@@.O@.o.#+o@@@$$$%##%$#@#o+@o+@@.o.#+o+oo@+o@oo+++o@X++o@@@.o@.o.#+X+oo#oo@+X@+o+@o++o+@+.o@.o.#+o+oo#oo@oo+++o@X+@o+@"
};
