/* XPM */
static char * qtlobby_logo_no_triangle_32x32_xpm[] = {
"32 32 590 2",
"  	c None",
". 	c #252F47",
"+ 	c #363144",
"@ 	c #523541",
"# 	c #5F3D41",
"$ 	c #7B5255",
"% 	c #7C5356",
"& 	c #643C43",
"* 	c #4E3642",
"= 	c #403342",
"- 	c #212E48",
"; 	c #2F3146",
"> 	c #553841",
", 	c #9C6967",
"' 	c #CF9389",
") 	c #E2A396",
"! 	c #EDAEA2",
"~ 	c #EDAEA0",
"{ 	c #ECADA0",
"] 	c #ECAEA2",
"^ 	c #E6A498",
"/ 	c #CE948B",
"( 	c #A46F6B",
"_ 	c #573B43",
": 	c #2F3047",
"< 	c #162A4B",
"[ 	c #543742",
"} 	c #9D655F",
"| 	c #E09A8C",
"1 	c #EDA495",
"2 	c #F29F8E",
"3 	c #F49B89",
"4 	c #F69A83",
"5 	c #F79B80",
"6 	c #F59A84",
"7 	c #F59B89",
"8 	c #F59E8C",
"9 	c #F1A191",
"0 	c #EEA697",
"a 	c #DE9F94",
"b 	c #A96B63",
"c 	c #493645",
"d 	c #202F48",
"e 	c #1D2E49",
"f 	c #663A40",
"g 	c #C98376",
"h 	c #EC9E8E",
"i 	c #F39784",
"j 	c #F6927E",
"k 	c #F6917E",
"l 	c #F6957D",
"m 	c #F89F76",
"n 	c #F8A874",
"o 	c #F6A57C",
"p 	c #F49D86",
"q 	c #F39A88",
"r 	c #F49A88",
"s 	c #F29A89",
"t 	c #F19F8C",
"u 	c #E9A493",
"v 	c #D08C7F",
"w 	c #623B40",
"x 	c #2B2E48",
"y 	c #1F2C49",
"z 	c #753B3C",
"A 	c #D27666",
"B 	c #EC9682",
"C 	c #F48F7B",
"D 	c #F68C77",
"E 	c #F5907B",
"F 	c #F29682",
"G 	c #F3A77F",
"H 	c #F8C980",
"I 	c #FEF6DF",
"J 	c #F6CA7D",
"K 	c #F1B185",
"L 	c #EEA38F",
"M 	c #EEA18E",
"N 	c #EFA28B",
"O 	c #F0A484",
"P 	c #F0A382",
"Q 	c #EEA18A",
"R 	c #D4806E",
"S 	c #65393E",
"T 	c #272E46",
"U 	c #19294B",
"V 	c #62383F",
"W 	c #C86755",
"X 	c #EF917A",
"Y 	c #F58F71",
"Z 	c #F68F70",
"` 	c #F49377",
" .	c #F0987F",
"..	c #EFA182",
"+.	c #F3BD80",
"@.	c #FEF6D1",
"#.	c #FFFFFF",
"$.	c #FEF8DB",
"%.	c #F4C880",
"&.	c #EFB380",
"*.	c #EFB47F",
"=.	c #F1B97E",
"-.	c #F4C674",
";.	c #F4BD79",
">.	c #EEA27E",
",.	c #E99A86",
"'.	c #C46B5A",
").	c #59373F",
"!.	c #1F2C47",
"~.	c #543540",
"{.	c #AE4736",
"].	c #E57E67",
"^.	c #F58C6E",
"/.	c #F79A6E",
"(.	c #F7AC70",
"_.	c #F4B272",
":.	c #F1B475",
"<.	c #F1BC73",
"[.	c #FAE496",
"}.	c #FDF4C5",
"|.	c #F7D778",
"1.	c #FAE49B",
"2.	c #FDF5CD",
"3.	c #FFFDF5",
"4.	c #F8E197",
"5.	c #ECA878",
"6.	c #E69681",
"7.	c #E18573",
"8.	c #B44431",
"9.	c #493241",
"0.	c #302F45",
"a.	c #7F3E3B",
"b.	c #D2563C",
"c.	c #F1846B",
"d.	c #F58A6A",
"e.	c #F7B377",
"f.	c #FFFFFE",
"g.	c #FEFBED",
"h.	c #FDF6D7",
"i.	c #FDF4BC",
"j.	c #FFFDEB",
"k.	c #FFFEF2",
"l.	c #F9E49B",
"m.	c #ECA774",
"n.	c #E4907C",
"o.	c #E28C7B",
"p.	c #C34D35",
"q.	c #863D37",
"r.	c #2A2E47",
"s.	c #533540",
"t.	c #C44C35",
"u.	c #E5664C",
"v.	c #F28069",
"w.	c #F18868",
"x.	c #F3B16B",
"y.	c #FFFDF7",
"z.	c #FFFEF7",
"A.	c #FEF8E0",
"B.	c #FDF3C7",
"C.	c #FEF7D6",
"D.	c #FFFDF2",
"E.	c #F9E29C",
"F.	c #EBA26D",
"G.	c #E58B74",
"H.	c #E38773",
"I.	c #D95C41",
"J.	c #B54530",
"K.	c #50343F",
"L.	c #242E49",
"M.	c #7C3E3C",
"N.	c #D2563B",
"O.	c #EA664A",
"P.	c #EF7C65",
"Q.	c #EA8367",
"R.	c #EEA965",
"S.	c #FEF8E3",
"T.	c #FFFFFD",
"U.	c #FCEEB9",
"V.	c #F7C473",
"W.	c #F6B36C",
"X.	c #F5AB6C",
"Y.	c #F6B06C",
"Z.	c #F7C26D",
"`.	c #FBE7AE",
" +	c #FFFEF8",
".+	c #F7D48B",
"++	c #EB9669",
"@+	c #E4826C",
"#+	c #E17F6B",
"$+	c #D35236",
"%+	c #C34830",
"&+	c #7A3B38",
"*+	c #1C2A49",
"=+	c #333144",
"-+	c #A74737",
";+	c #DF5C3F",
">+	c #E9654A",
",+	c #E9745A",
"'+	c #E7865E",
")+	c #EDA960",
"!+	c #FDF4CB",
"~+	c #FFFEFB",
"{+	c #FADC8C",
"]+	c #F5AC69",
"^+	c #F3946A",
"/+	c #F38C6F",
"(+	c #F38970",
"_+	c #F48C6E",
":+	c #F3946B",
"<+	c #F3A668",
"[+	c #F8CA77",
"}+	c #FADE9A",
"|+	c #F0A465",
"1+	c #E98665",
"2+	c #E47B66",
"3+	c #E0725C",
"4+	c #D64D30",
"5+	c #CF4B2F",
"6+	c #9E4134",
"7+	c #392F46",
"8+	c #523441",
"9+	c #BF4B34",
"0+	c #E15F43",
"a+	c #EA6848",
"b+	c #E87D4A",
"c+	c #EDA65A",
"d+	c #F8DE91",
"e+	c #FFFDED",
"f+	c #FBE8AD",
"g+	c #F3A463",
"h+	c #F18765",
"i+	c #F4806B",
"j+	c #F4816D",
"k+	c #F5816E",
"l+	c #F4826C",
"m+	c #F4816B",
"n+	c #F18667",
"o+	c #F19061",
"p+	c #F0945F",
"q+	c #EB855F",
"r+	c #E77861",
"s+	c #E3745D",
"t+	c #DD634A",
"u+	c #D54E32",
"v+	c #D44C30",
"w+	c #BF472E",
"x+	c #4C3441",
"y+	c #583740",
"z+	c #CB4F36",
"A+	c #E86645",
"B+	c #EE7E4A",
"C+	c #F3B468",
"D+	c #FDF4D4",
"E+	c #FEFBEA",
"F+	c #F5B45F",
"G+	c #F2865C",
"H+	c #F37964",
"I+	c #F67B66",
"J+	c #F77E69",
"K+	c #F98566",
"L+	c #F89163",
"M+	c #F79061",
"N+	c #F48360",
"O+	c #F07A61",
"P+	c #ED775E",
"Q+	c #EA735C",
"R+	c #E77059",
"S+	c #E3684F",
"T+	c #DB5337",
"U+	c #D74F32",
"V+	c #D34D30",
"W+	c #BE472F",
"X+	c #59363F",
"Y+	c #62383E",
"Z+	c #CD5137",
"`+	c #E96B47",
" @	c #F29555",
".@	c #FEF9ED",
"+@	c #FDF1CA",
"@@	c #F29951",
"#@	c #F17558",
"$@	c #F3735D",
"%@	c #F7775F",
"&@	c #FA815E",
"*@	c #FDA15E",
"=@	c #FDCC7C",
"-@	c #FCCE82",
";@	c #F79F58",
">@	c #F27B57",
",@	c #ED6F56",
"'@	c #E96B54",
")@	c #E5664D",
"!@	c #E0563C",
"~@	c #DC5237",
"{@	c #D84F33",
"]@	c #D44C31",
"^@	c #C0482F",
"/@	c #62383D",
"(@	c #65383E",
"_@	c #C94F37",
":@	c #E46544",
"<@	c #E87543",
"[@	c #F1B464",
"}@	c #FEF9EB",
"|@	c #FCE8AD",
"1@	c #F08D4B",
"2@	c #EF6E51",
"3@	c #F36E56",
"4@	c #F87959",
"5@	c #FC9B59",
"6@	c #FED283",
"7@	c #FFFCF4",
"8@	c #FFFEF9",
"9@	c #FBD48C",
"0@	c #F49751",
"a@	c #EC724C",
"b@	c #E96146",
"c@	c #E4593E",
"d@	c #DF553A",
"e@	c #DB5237",
"f@	c #D74F34",
"g@	c #C3482E",
"h@	c #63373E",
"i@	c #5C363F",
"j@	c #C74F35",
"k@	c #E25C40",
"l@	c #E35F3E",
"m@	c #E2703C",
"n@	c #EFAE59",
"o@	c #FDF6DD",
"p@	c #FCEBB6",
"q@	c #F08A47",
"r@	c #F0674B",
"s@	c #F3684F",
"t@	c #F88350",
"u@	c #FDC576",
"v@	c #FFF8F1",
"w@	c #FFFBFA",
"x@	c #FFFBFB",
"y@	c #FFFBF7",
"z@	c #FAD188",
"A@	c #F29247",
"B@	c #E86840",
"C@	c #E0553A",
"D@	c #D75033",
"E@	c #C24830",
"F@	c #5B363F",
"G@	c #483442",
"H@	c #C34B34",
"I@	c #E25A3D",
"J@	c #E0593F",
"K@	c #DC5936",
"L@	c #E47D39",
"M@	c #F6D173",
"N@	c #FEF4D8",
"O@	c #F2994F",
"P@	c #EF6F4A",
"Q@	c #F2684F",
"R@	c #F77E51",
"S@	c #FCC176",
"T@	c #FFF5ED",
"U@	c #FFF8F6",
"V@	c #FFF8F7",
"W@	c #FFF9F8",
"X@	c #FFF9F4",
"Y@	c #F9CE88",
"Z@	c #EE8C45",
"`@	c #E5643D",
" #	c #DF5639",
".#	c #DB5236",
"+#	c #B74531",
"@#	c #3E3244",
"##	c #9F4537",
"$#	c #D6553B",
"%#	c #E0593E",
"&#	c #DB5736",
"*#	c #E3803B",
"=#	c #FAE5AE",
"-#	c #FFFEFC",
";#	c #F8C57B",
">#	c #F0824D",
",#	c #EF6D4E",
"'#	c #F47553",
")#	c #F79254",
"!#	c #FCC682",
"~#	c #FFF2EA",
"{#	c #FFF5F3",
"]#	c #FFF6F4",
"^#	c #FFF7F5",
"/#	c #FFF8F2",
"(#	c #F7CB87",
"_#	c #EC8D45",
":#	c #E06239",
"<#	c #D95235",
"[#	c #CF4C31",
"}#	c #A84332",
"|#	c #352F45",
"1#	c #1E2D49",
"2#	c #7B3D3B",
"3#	c #D25236",
"4#	c #DF593C",
"5#	c #DD6237",
"6#	c #E99647",
"7#	c #FEF5E1",
"8#	c #F4A456",
"9#	c #F07750",
"0#	c #F16D54",
"a#	c #F27654",
"b#	c #F58F55",
"c#	c #FAC580",
"d#	c #FFF1E7",
"e#	c #FFF3F1",
"f#	c #FFF4F2",
"g#	c #FFF6F1",
"h#	c #F8CD85",
"i#	c #E88941",
"j#	c #DB5A35",
"k#	c #D84E31",
"l#	c #C74A30",
"m#	c #733C3B",
"n#	c #232C46",
"o#	c #553640",
"p#	c #B24835",
"q#	c #DC5536",
"r#	c #DF6C3B",
"s#	c #F4C174",
"t#	c #F7C184",
"u#	c #EF7E51",
"v#	c #EE6E54",
"w#	c #EF6D54",
"x#	c #F07654",
"y#	c #F49155",
"z#	c #F9C281",
"A#	c #FFEDE5",
"B#	c #FFF1EF",
"C#	c #FFF6F0",
"D#	c #F2BB75",
"E#	c #DE6B36",
"F#	c #D04E30",
"G#	c #B64631",
"H#	c #58363E",
"I#	c #252D47",
"J#	c #8A3E37",
"K#	c #CA4E32",
"L#	c #DD6C38",
"M#	c #EEAA5F",
"N#	c #F7D590",
"O#	c #F8D89C",
"P#	c #FAD89E",
"Q#	c #F7CA89",
"R#	c #F09155",
"S#	c #EC7552",
"T#	c #EC6D54",
"U#	c #ED6E56",
"V#	c #EE6F55",
"W#	c #EF7856",
"X#	c #F08D56",
"Y#	c #F8BF81",
"Z#	c #FFECE4",
"`#	c #FFF0ED",
" $	c #FFF2F0",
".$	c #FEF1E0",
"+$	c #EEAD5C",
"@$	c #DA6433",
"#$	c #853E38",
"$$	c #232D46",
"%$	c #403343",
"&$	c #A64535",
"*$	c #DA5633",
"=$	c #DC6C36",
"-$	c #E37A42",
";$	c #E67D47",
">$	c #E8814A",
",$	c #E97D4E",
"'$	c #E97450",
")$	c #E96B52",
"!$	c #EA6E56",
"~$	c #EB6F56",
"{$	c #EC6F57",
"]$	c #EB6F55",
"^$	c #EC7554",
"/$	c #EF8C55",
"($	c #F7C180",
"_$	c #FFECE1",
":$	c #FEEBDA",
"<$	c #F1B566",
"[$	c #E0753B",
"}$	c #D4522F",
"|$	c #A04334",
"1$	c #222C48",
"2$	c #5C373E",
"3$	c #B74932",
"4$	c #D74F2F",
"5$	c #D85638",
"6$	c #DD6042",
"7$	c #E26547",
"8$	c #E3674C",
"9$	c #E56851",
"0$	c #E76C53",
"a$	c #E96E56",
"b$	c #E97057",
"c$	c #EA6F58",
"d$	c #E86E55",
"e$	c #E97453",
"f$	c #EC8A55",
"g$	c #F3B073",
"h$	c #F1AB60",
"i$	c #E37A45",
"j$	c #DA542E",
"k$	c #AE4532",
"l$	c #65383C",
"m$	c #182B47",
"n$	c #2B2F46",
"o$	c #5D373F",
"p$	c #AC4331",
"q$	c #D8573D",
"r$	c #DE6248",
"s$	c #E1664C",
"t$	c #E36A50",
"u$	c #E56D54",
"v$	c #E77056",
"w$	c #E87159",
"x$	c #E8715A",
"y$	c #E77158",
"z$	c #E66F57",
"A$	c #E56E54",
"B$	c #E57150",
"C$	c #E5774E",
"D$	c #E17046",
"E$	c #D45531",
"F$	c #AA4433",
"G$	c #753B3A",
"H$	c #1E2C48",
"I$	c #54353F",
"J$	c #AB4332",
"K$	c #DA573B",
"L$	c #E0654B",
"M$	c #E26B50",
"N$	c #E46D55",
"O$	c #E67059",
"P$	c #E6735B",
"Q$	c #E6725B",
"R$	c #E36D54",
"S$	c #E46A50",
"T$	c #D95F43",
"U$	c #CE4D32",
"V$	c #A44334",
"W$	c #61383D",
"X$	c #1E2F4A",
"Y$	c #242D45",
"Z$	c #433341",
"`$	c #833C36",
" %	c #B34430",
".%	c #CA5139",
"+%	c #DC674F",
"@%	c #E46E56",
"#%	c #E47159",
"$%	c #E6745D",
"%%	c #E7765F",
"&%	c #E6735C",
"*%	c #E57059",
"=%	c #E16C55",
"-%	c #CE5841",
";%	c #BA4630",
">%	c #813D38",
",%	c #1B2D4A",
"'%	c #1F2D49",
")%	c #51343F",
"!%	c #763A39",
"~%	c #9C4235",
"{%	c #C7523C",
"]%	c #CD5E49",
"^%	c #D4664F",
"/%	c #D86952",
"(%	c #D1614C",
"_%	c #C35642",
":%	c #A74536",
"<%	c #733A3B",
"[%	c #58353F",
"}%	c #222C46",
"|%	c #1E2D48",
"1%	c #3C3244",
"2%	c #4D3441",
"3%	c #5B373F",
"4%	c #63383E",
"5%	c #64383E",
"6%	c #5D383F",
"7%	c #503440",
"8%	c #373046",
"9%	c #262E49",
"                                                                ",
"                                                                ",
"                      . + @ # $ % & * = -                       ",
"                  ; > , ' ) ! ~ { ] ^ / ( _ :                   ",
"              < [ } | 1 2 3 4 5 6 7 8 9 0 a b c d               ",
"            e f g h i j k l m n o p q r s t u v w x             ",
"          y z A B C D E F G H I J K L M N O P Q R S T           ",
"        U V W X Y Z `  ...+.@.#.$.%.&.*.=.-.;.>.,.'.).!.        ",
"        ~.{.].^./.(._.:.<.[.#.#.#.}.|.1.2.3.4.5.6.7.8.9.        ",
"      0.a.b.c.d.e.f.g.h.i.j.#.#.#.#.k.#.#.#.l.m.n.o.p.q.r.      ",
"      s.t.u.v.w.x.y.#.#.#.#.z.A.B.C.D.#.#.#.E.F.G.H.I.J.K.      ",
"    L.M.N.O.P.Q.R.S.#.#.T.U.V.W.X.Y.Z.`. +#..+++@+#+$+%+&+*+    ",
"    =+-+;+>+,+'+)+!+#.~+{+]+^+/+(+_+:+<+[+}+|+1+2+3+4+5+6+7+    ",
"    8+9+0+a+b+c+d+e+#.f+g+h+i+j+k+l+m+n+o+p+q+r+s+t+u+v+w+x+    ",
"    y+z+A+B+C+D+#.#.E+F+G+H+I+J+K+L+M+N+O+P+Q+R+S+T+U+V+W+X+    ",
"    Y+Z+`+ @.@#.#.#.+@@@#@$@%@&@*@=@-@;@>@,@'@)@!@~@{@]@^@/@    ",
"    (@_@:@<@[@}@#.#.|@1@2@3@4@5@6@7@8@9@0@a@b@c@d@e@f@]@g@h@    ",
"    i@j@k@l@m@n@o@#.p@q@r@s@t@u@v@w@x@y@z@A@B@c@C@~@D@]@E@F@    ",
"    G@H@I@J@K@L@M@#.N@O@P@Q@R@S@T@U@V@W@X@Y@Z@`@ #.#U+4++#x+    ",
"    @###$#%#&#*#=##.-#;#>#,#'#)#!#~#{#]#^#/#(#_#:#<#u+[#}#|#    ",
"    1#2#3#4#5#6#}@#.#.7#8#9#0#a#b#c#d#e#f#]#g#h#i#j#k#l#m#n#    ",
"      o#p#q#r#s##.#.#.#.t#u#v#w#x#y#z#A#B#e#{#C#D#E#F#G#H#      ",
"      I#J#K#L#M#N#O#P#Q#R#S#T#U#V#W#X#Y#Z#`# $.$+$@$[##$$$      ",
"        %$&$*$=$-$;$>$,$'$)$!$~${$]$^$/$($_$:$<$[$}$|$~.        ",
"        1$2$3$4$5$6$7$8$9$0$a$b$c$b$d$e$f$g$h$i$j$k$l$m$        ",
"          n$o$p$v+q$r$s$t$u$v$w$x$y$z$A$B$C$D$E$F$G$H$          ",
"            T I$J$E@K$L$M$N$O$P$Q$Q$O$R$S$T$U$V$W$X$            ",
"              Y$Z$`$ %.%+%@%#%$%%%&%*%=%-%;%>%o#,%              ",
"                  '%)%!%~%{%]%^%/%(%_%:%<%[%}%                  ",
"                      |%1%2%3%4%5%6%7%8%9%                      ",
"                                                                ",
"                                                                "};
